<?xml version="1.0" standalone="no"?>
<!DOCTYPE svg PUBLIC "-//W3C//DTD SVG 1.1//EN" "http://www.w3.org/Graphics/SVG/1.1/DTD/svg11.dtd" >
<svg xmlns="http://www.w3.org/2000/svg">
<metadata>Generated by IcoMoon</metadata>
<defs>
<font id="icomoon" horiz-adv-x="1024">
<font-face units-per-em="1024" ascent="960" descent="-64" />
<missing-glyph horiz-adv-x="1024" />
<glyph unicode="&#x20;" horiz-adv-x="512" d="" />
<glyph unicode="&#xe900;" glyph-name="building" d="M510.352 904.857l68.165-17.91c2.971-1.155 4.469-3.085 4.469-5.777v-17.332l24.574-6.355c2.995-1.155 4.469-3.085 4.469-5.777v-221.278l2.794 0.578v16.755c0 3.085 1.487 5.003 4.469 5.776l94.985 13.866h1.119l92.191-31.775c2.593-0.775 3.911-2.509 3.911-5.2v-25.421l52.509-10.977c2.995-0.775 4.471-2.693 4.471-5.778v-423.49l39.111 10.977h2.245l100.003-13.866c2.593-0.393 4.281-2.127 5.018-5.199 0-2.693-1.285-4.623-3.911-5.778l-497.275-160.037h-3.343l-497.275 160.037c-2.604 1.156-3.911 3.074-3.911 5.778 0 2.703 1.676 4.425 5.040 5.199l99.455 13.866h1.665l31.3-8.088v500.908c0 3.085 1.486 5.016 4.47 5.778l52.511 10.977v25.421c0 2.692 1.307 4.229 3.909 4.623l90.538 32.354 3.341 0.578 94.438-15.022c3.341-0.763 5.018-2.692 5.018-5.776v-16.177l10.604-1.156v141.549c0 2.311 1.307 4.241 3.935 5.777l25.69 6.933v16.755c0 2.692 1.307 4.426 3.911 5.2l62.031 18.488c1.095 0.381 2.213 0.381 3.354 0zM571.813 866.725v9.822l-57.549 15.599v-10.977l57.549-14.444zM513.145 869.614v-372.071h26.262v119.016c0 3.085 1.675 5.016 5.018 5.778l56.991 6.932v217.812l-25.145 6.355h-0.547l-62.579 16.177zM476.257 697.434v-199.901h26.262v372.070l-54.199-15.599h-0.569l-25.143-6.933v-138.082l48.631-5.778c3.332-0.763 5.018-2.692 5.018-5.776zM662.318 636.769h1.675l45.817-9.821v28.31l-83.811-12.71v-10.399l36.319 4.621zM550.57 611.926v-114.394h66.478c3.732 0 5.588-1.931 5.588-5.778v-20.22h16.214c3.71 0 5.588-1.931 5.588-5.778v-358.204l12.827 3.467v513.618l-106.695-12.71zM720.984 654.102v-29.466l79.899-17.331v19.065l-79.899 27.732zM503.625 892.135l-51.405-15.599v-9.244l51.405 14.444v10.399zM611.461 485.989h-198.888v-14.444h198.888v14.444zM517.594 460.557v-384.783l115.681 29.466v355.317h-115.681zM510.352 62.499l-126.287 32.931h-0.569l-269.859 68.752-73.206-9.821 471.573-151.96 472.132 151.947-74.289 9.823-396.155-101.685-3.341 0.013zM857.306 583.629l-188.853 40.443v-510.153l188.853 47.952v421.758zM506.417 460.557h-115.657v-355.317l115.657-29.466v384.783zM214.758 687.623l79.899 17.333v29.464l-79.899-27.732v-19.065zM353.335 716.511l36.319-4.045v9.821l-84.381 13.288v-28.31l46.376 9.245h1.686zM357.806 704.956v-591.038l21.78-5.778v357.627c0 3.849 1.876 5.778 5.586 5.778h16.763v20.22c0 3.849 1.677 5.778 5.040 5.778h58.097v194.703l-107.266 12.71zM157.208 663.923v-499.174l189.97-47.954v587.571l-189.97-40.443z" />
<glyph unicode="&#xe901;" glyph-name="ham" d="M85.333 746.667h853.333v-99.555h-853.333v99.555zM85.333 497.779h853.333v-99.558h-853.333v99.558zM85.333 248.887h853.333v-99.554h-853.333v99.554z" />
<glyph unicode="&#xe902;" glyph-name="close" d="M670.293 606.293c-3.968 3.999-8.687 7.173-13.888 9.339-5.197 2.166-10.773 3.281-16.405 3.281-5.636 0-11.213-1.115-16.41-3.281-5.201-2.166-9.92-5.34-13.884-9.339l-97.707-98.133-97.708 98.133c-8.035 8.034-18.931 12.548-30.293 12.548s-22.259-4.514-30.293-12.548c-8.035-8.034-12.548-18.931-12.548-30.293s4.513-22.259 12.548-30.293l98.135-97.707-98.135-97.707c-3.999-3.968-7.174-8.687-9.339-13.884-2.166-5.201-3.281-10.778-3.281-16.41s1.115-11.209 3.281-16.41c2.166-5.197 5.34-9.916 9.339-13.884 3.966-3.998 8.685-7.172 13.885-9.34s10.776-3.281 16.409-3.281c5.632 0 11.209 1.114 16.408 3.281s9.918 5.342 13.885 9.34l97.708 98.133 97.707-98.133c3.964-3.998 8.683-7.172 13.884-9.34 5.197-2.167 10.773-3.281 16.41-3.281 5.632 0 11.209 1.114 16.405 3.281 5.201 2.167 9.92 5.342 13.888 9.34 3.998 3.968 7.172 8.687 9.335 13.884 2.167 5.201 3.285 10.778 3.285 16.41s-1.118 11.209-3.285 16.41c-2.163 5.197-5.338 9.916-9.335 13.884l-98.133 97.707 98.133 97.707c3.998 3.966 7.172 8.685 9.335 13.885 2.167 5.199 3.285 10.776 3.285 16.409s-1.118 11.209-3.285 16.409c-2.163 5.199-5.338 9.918-9.335 13.885zM813.653 749.653c-39.36 40.751-86.443 73.255-138.496 95.616s-108.041 34.132-164.693 34.624c-56.653 0.492-112.837-10.303-165.273-31.756s-100.074-53.135-140.135-93.196c-40.061-40.061-71.742-87.699-93.196-140.135s-32.249-108.618-31.756-165.271c0.492-56.653 12.262-112.64 34.624-164.693 22.361-52.058 54.866-99.136 95.617-138.496 39.359-40.751 86.439-73.254 138.494-95.616s108.044-34.133 164.693-34.624c56.653-0.491 112.836 10.304 165.274 31.757s100.075 53.133 140.134 93.193c40.060 40.064 71.744 87.701 93.197 140.139 21.453 52.433 32.247 108.617 31.757 165.269-0.495 56.653-12.262 112.64-34.624 164.695s-54.865 99.135-95.616 138.494zM753.493 206.507c-55.808-55.868-129.259-90.658-207.838-98.445-78.583-7.787-157.433 11.913-223.118 55.744s-114.14 109.082-137.111 184.631c-22.971 75.55-19.037 156.732 11.133 229.705 30.17 72.975 84.709 133.232 154.324 170.505s150.001 49.256 227.462 33.907c77.457-15.349 147.2-57.080 197.342-118.084s77.581-137.504 77.645-216.471c0.149-44.855-8.597-89.293-25.732-130.748-17.139-41.451-42.325-79.091-74.108-110.746z" />
<glyph unicode="&#xe905;" glyph-name="play" d="M682.634 10.312c-53.985-20.864-111.401-31.493-169.303-31.35-111.945-0.015-220.226 39.803-305.37 112.307-85.149 72.499-141.579 172.918-159.158 283.213-17.569 110.291 4.868 223.226 63.28 318.491 6.096 10.014 2.939 23.067-7.056 29.215-4.844 2.991-10.68 3.923-16.217 2.608-5.536-1.325-10.321-4.798-13.285-9.647-56.031-91.279-81.968-197.777-74.167-304.54 7.808-106.752 48.957-208.379 117.665-290.575 68.716-82.207 161.528-140.846 265.395-167.69 103.854-26.834 213.536-20.511 313.602 18.079 11.039 4.239 16.543 16.604 12.288 27.617-4.25 11.013-16.64 16.502-27.679 12.262l0.005 0.010zM513.336 959.981c-67.464 0.342-134.325-12.679-196.703-38.305-62.387-25.626-119.044-63.346-166.706-110.981-7.265-8.464-6.772-21.076 1.119-28.948 7.899-7.881 20.542-8.364 29.025-1.125 62.787 62.962 142.191 106.856 228.99 126.568 86.801 19.719 177.429 14.454 261.356-15.186 83.922-29.64 157.681-82.431 212.716-152.244 55.040-69.801 89.073-153.768 98.166-242.12 9.103-88.348-7.127-177.451-46.787-256.965-39.665-79.508-101.13-146.15-177.26-192.184-4.869-2.959-8.346-7.731-9.672-13.256s-0.384-11.346 2.616-16.179c3.917-6.246 10.778-10.040 18.171-10.020 3.907-0.041 7.747 0.988 11.11 2.98 95.048 58.24 168.468 145.797 209.162 249.416 40.699 103.608 46.438 217.614 16.348 324.78-30.085 107.149-94.351 201.602-183.066 269.055s-197.053 104.216-308.598 104.732l0.010-0.019zM364.969 213.555c7.415-0.113 14.747 1.572 21.377 4.905l382.007 191.939c9.385 4.797 16.655 12.877 20.434 22.702 3.763 9.82 3.763 20.693 0 30.516-3.779 9.822-11.049 17.911-20.434 22.702l-383.29 191.514c-14.154 7.081-30.971 6.356-44.466-1.916-12.451-7.631-19.933-21.252-19.665-35.831v-383.876c0.050-14.438 7.674-27.781 20.091-35.19 7.131-4.664 15.423-7.25 23.949-7.465h-0.003zM363.683 640.083c0.827 0.333 1.745 0.333 2.564 0l382.221-191.939-382.221-191.94h-2.564v383.879z" />
<glyph unicode="&#xe906;" glyph-name="cross" d="M899.016 929.805c2.258-4.605 6.779-6.9 11.3-11.505 2.253-2.295 6.779 0 9.032-2.295s-2.253-4.605 2.253-4.605c-6.774-9.194-9.032-18.405-11.3-27.599-2.253-16.11 2.253-32.204-4.521-46.003 0 0-2.253 0-2.253-2.295s-4.526-9.194-6.779-16.11c0-2.295-6.774-4.605-6.774-4.605v-6.9c0 0-2.253 0-2.253-2.295 0-4.605-2.253-4.605-2.253-6.9-9.032-13.799-20.332-29.91-29.373-41.398-4.526-6.9-11.3-16.111-15.826-23.010-20.326-25.305-42.926-52.904-63.252-82.813-2.253-2.294-4.521-4.605-6.779-4.605v-4.605h-2.253c-2.253-4.605 0-9.194-4.521-11.505 0-2.295-4.521-4.605-6.774-4.605v-4.605h-2.258v-4.605h-2.253v-4.605c-2.253-2.294-4.521-4.605-6.774-6.9v-4.605h-2.253v-4.605h-2.253v-4.605c-2.258-2.294-6.779-6.9-9.032-11.505s-4.521-9.194-6.779-11.505c0-2.295-4.521-2.295-6.774-4.605v-4.605h-2.253v-4.605h-2.253v-4.605c-4.526-2.295-13.553-16.111-15.821-23.010-13.583-20.635-15.857-27.551-15.857-34.45 0-11.505 11.3-25.305 22.6-39.104 2.253-2.295 6.774-4.605 9.032-6.9 2.253-2.294 2.253-6.902 6.774-11.505 2.253-2.294 6.774-4.603 9.032-6.902 2.253-2.294 2.253-2.294 2.253-4.603 2.253-2.294 6.774-11.505 11.3-18.406 0-2.294 2.253 0 2.253-2.294v-2.294c2.253-2.294 6.774-4.608 9.027-6.902s2.253-2.294 2.253-4.603c0-2.294 2.258-2.294 2.258-2.294 9.027-13.804 15.821-25.308 22.595-36.813 2.253-2.294 6.779-4.603 9.032-6.897 0 0-2.253-4.608 0-4.608 9.027-6.897 18.074-23.009 22.595-34.499v-4.603h2.253v-4.608h2.258v-4.603h2.253v-4.608h2.253c2.253-4.603 0-6.897 2.253-9.19 0-2.299 4.521-2.299 6.774-2.299 0 0-2.253-4.603 0-4.603 2.258-2.294 4.526-4.603 9.032-11.505 2.253-4.608 4.521-9.196 9.032-16.113 4.521-6.897 13.553-20.695 20.326-32.2 0-2.299 2.253-2.299 2.253-4.608 2.253-2.294 2.253-4.603 2.253-6.902 0-2.294 2.253-4.603 2.253-6.897 2.253-6.902 6.779-23.009 11.3-34.499 2.253-4.608 4.521-9.196 6.779-13.798 2.253-11.51 2.253-32.205-2.258-41.4 0 0-2.253 0-2.253-2.294 0-9.196-11.295-16.113-18.074-23.009-9.027-9.196-29.373-27.602-47.447-29.911-13.553 0-24.852 4.603-33.884 11.505-2.253 2.294-4.521 4.603-6.774 4.603h-6.779c-2.253 2.299-6.774 6.902-11.295 11.51-9.032 6.897-13.553 9.19-18.079 16.108-2.253 2.294-4.521 4.608-6.774 6.902s-6.779 6.897-9.032 11.505c-2.253 2.294-2.253 2.294-2.253 4.603 0 2.294-9.027 11.505-9.027 16.113 0 2.294-2.258 6.897-6.779 11.505-2.253 2.294-4.521 4.603-6.774 6.902l-6.779 6.897c-2.253 2.294-2.253 4.608-6.774 6.902-2.253 2.294-4.526 4.603-6.779 6.897-2.253 2.299-4.521 4.608-6.774 6.902s-2.253 4.603-6.779 6.902l-6.774 6.897c-2.253 2.294-4.521 4.608-6.779 6.902-2.253 2.294-4.521 4.603-6.774 6.897l-6.779 6.902c13.619 4.588 13.619 6.886 11.346 9.196l-54.208 55.199c-4.523 4.608-9.030 11.505-15.822 18.406-4.522 4.603-6.776 11.505-11.299 16.108-2.253 2.299-2.253 0-2.253 2.299 0 4.603-9.030 4.603-11.299 11.505-13.552 0-15.821-11.505-22.598-20.7-2.253-2.294-4.522-4.608-6.776-4.608-2.253-2.294-2.253-4.603-2.253-6.897-2.253-2.294-4.522-2.294-6.776-4.608v-4.603c-2.253-2.294-4.522-4.608-6.776-6.902-2.253-4.603-6.776-9.196-13.552-18.406-2.254-2.294-4.523-2.294-6.776-4.603-2.253-2.294-2.253-4.603-2.253-6.902-2.253-2.294-4.523-2.294-6.776-4.603-2.253-2.294-9.030-11.505-13.552-18.406-2.254-2.294-4.523-2.294-6.776-4.603v-4.608h-2.253c-2.253-2.294-2.253-4.603-2.253-6.897-2.254-2.294-4.523-2.294-6.776-4.608-2.253-2.294-2.253-4.603-2.253-6.897-2.253-2.299-4.522-2.299-6.776-2.299-2.253-2.294-2.253-4.603-2.253-6.897-2.253-2.294-9.030-4.608-13.552-9.196v-4.603c-2.254-2.299-6.776-2.299-9.030-4.608v-4.603c-2.254-2.294-6.776-2.294-9.030-4.608v-4.603c-11.299-6.902-22.598-23.009-31.627-34.499-2.254-2.294-2.254-4.608-2.254-6.902 0 0-4.522-2.294-6.776-2.294-2.254-2.294-2.254-4.603-2.254-6.902-4.522-4.603-6.776-9.19-13.552-18.401-2.253-4.608-4.522-9.196-6.776-11.505 0-2.299-4.523-2.299-6.776-4.608v-4.603c-2.253-2.299-9.030-6.902-13.553-11.505-2.253-2.299-4.522-2.299-6.776-4.608v-4.603l-6.776-6.902c-2.253-2.294-4.522-2.294-6.776-4.603-2.254-2.299-2.254-4.608-2.254-6.902s-2.253 0-2.253-2.294c0-6.902-15.821-16.113-22.598-23.009-6.776-6.902-11.299-13.804-18.075-20.7-4.522-4.608-13.552-6.902-22.598-11.505-6.776-4.608-13.552-9.196-18.075-11.505-4.522-2.299-4.523-4.608-9.030-6.902-6.776-2.294-27.105-11.505-36.149-11.505-6.776 0-22.598 4.603-29.374 9.196-2.253 2.294-4.523 4.603-6.776 4.603h-6.776l-2.253 4.608c-4.523 2.294-15.822 6.897-20.329 13.798 0 0 2.253 4.603 0 4.603h-2.253v4.608c-2.253 2.294-4.523 4.603-6.776 11.505-4.523 11.505 2.253 27.597 6.776 43.709 2.253 4.608 6.776 13.798 9.030 18.406 2.253 2.294 4.523 2.294 6.776 4.603 4.523 4.608 6.776 9.196 9.030 11.505 6.776 9.196 9.030 18.406 15.822 27.602 2.253 2.294 4.523 4.603 6.776 4.603 2.254 2.294 2.254 4.608 2.254 6.902 2.253 4.603 9.030 6.902 13.552 9.196 2.253 2.294 2.253 4.603 2.253 6.897 2.253 2.294 4.522 2.294 6.776 4.608 2.253 2.294 2.253 4.603 2.253 6.897 2.253 2.299 4.522 2.299 6.776 4.608 2.253 4.603 6.776 9.196 9.030 11.505 2.253 2.294 4.522 2.294 6.776 4.603 2.254 2.299 4.523 6.902 6.776 9.196v4.608c0 2.294 4.522 4.603 6.776 4.603 2.253 2.294 2.253 4.608 2.253 6.902 2.253 2.294 4.522 4.603 6.776 4.603 2.253 4.608 4.522 11.505 6.776 16.113 0 2.294 4.522 4.603 6.776 4.603 2.253 2.294 2.253 4.608 2.253 6.902 6.776 9.196 13.552 16.108 20.328 25.303s13.552 16.113 20.328 25.303c2.253 2.299 4.522 4.608 6.776 4.608 2.254 2.294 2.254 4.603 2.254 6.902 2.253 2.294 4.522 2.294 6.776 4.603 2.253 4.603 6.776 6.902 9.029 11.505 2.254 2.294 2.254 4.608 2.254 6.902s4.522 4.603 6.776 4.603c2.253 2.294 2.253 4.608 2.253 6.902 6.776 11.505 15.822 20.7 24.851 29.906 2.253 2.299 4.522 4.608 6.776 4.608 2.254 4.603 2.254 11.505 6.776 16.108 2.253 2.299 4.522 4.608 6.776 4.608 2.253 2.294 2.253 4.603 2.253 6.902 2.253 2.294 4.522 2.294 6.776 4.603 2.253 2.294 2.253 4.603 2.253 6.902 2.253 2.294 4.522 4.603 6.776 4.603 2.253 2.294 2.253 4.608 2.253 6.902 2.253 2.294 4.522 4.603 6.776 4.603 2.254 2.294 2.254 4.608 2.254 6.902 2.253 2.294 4.522 4.603 6.776 4.603 2.253 4.608 2.254 9.196 6.776 16.113 2.253 2.294 4.522 2.294 6.776 4.603 2.253 2.294 0 4.608 2.253 6.902 2.253 0 4.522 2.294 6.776 2.294 2.254 2.294 0 4.603 2.254 6.902 0 0 4.522 2.293 6.776 2.293 11.299 11.505 15.822 23.010 11.299 41.398v4.605h-2.253v4.605c-2.253 2.295-9.030 6.9-9.030 11.505v2.295c-2.253 2.294-6.776 4.605-9.030 6.9s-2.253 4.605-2.253 6.9c0 2.295-2.253 0-2.253 2.295 0 4.605-4.523 4.605-6.776 11.505 0 2.294-4.522 6.9-6.776 6.9-2.253 2.294-4.522 11.505-9.030 16.11-4.522 6.9-9.030 13.799-13.552 20.7-2.253 2.294 0 6.9-2.253 6.9 0 0-4.522 2.295-6.776 2.295v4.605h-2.253v4.605c-2.253 2.294-9.030 6.9-9.030 11.505s-4.522 4.605-6.776 11.505c0 2.295-4.522 6.9-6.776 6.9-2.254 2.295-2.253 6.9-6.776 11.505 0 2.295-2.253 0-2.253 2.295s-4.522 6.9-6.776 6.9c-2.253 2.295-4.522 9.194-9.030 16.11 0 2.295-4.522 4.605-6.776 4.605v4.605h-2.254v4.605h-2.253v4.605c-2.253 2.294-9.030 6.9-9.030 11.505 0 2.294-4.522 2.294-6.776 4.605 0 0 2.253 4.605 0 4.605-2.254 2.294-9.030 6.9-9.030 11.505s-6.776 4.605-6.776 11.505c0 2.295-4.522 6.9-6.776 6.9-2.253 2.295-2.253 4.605-2.253 4.605-2.253 2.295-6.776 4.605-9.030 6.9s-2.253 4.605-2.253 6.9c0 2.295-2.253 0-2.253 2.295s-6.776 6.9-9.030 11.505c-2.253 2.294-4.523 4.605-6.776 4.605 0 0 2.253 4.605 0 4.605-2.253 2.295-9.030 2.295-9.030 6.9s-9.030 4.605-9.030 11.505c0 2.295-4.522 2.294-6.776 4.605 0 0 2.253 4.605 0 4.605-4.523 2.295-11.299 20.7-13.553 27.599-4.522 11.505-9.030 23.010-9.030 29.91 0 11.505 4.523 16.11 11.299 27.599 4.523 6.9 4.523 20.699 6.776 27.599 2.253 2.295 6.776 4.605 9.030 6.9s9.030 2.295 9.030 6.9c4.522 4.605 6.776 11.505 15.821 13.8 6.776 4.605 15.822-2.295 27.105 0 15.821-2.295 18.075 16.11 31.627 9.194 6.776 0 13.552-6.9 20.328-9.194 22.598-4.605 22.598-20.699 38.403-41.398 0-2.295 2.253 0 2.253-2.295s4.522-2.294 6.776-4.605v-4.605c2.253-2.294 6.776-2.294 9.030-4.605 0 0-2.254-4.605 0-4.605 0 0 4.522-2.295 6.776-2.295 0 0-2.253-4.605 0-4.605h2.253v-4.605h2.254c2.253-4.605 0-6.9 2.253-9.194s6.776-2.294 9.030-4.605c2.253-2.295 0-6.9 2.253-9.194 0 0 4.522-2.295 6.776-2.295v-4.605c0 0 4.522-2.295 6.776-2.295v-4.605c2.254-2.295 6.776-2.295 9.030-4.605 0 0-2.253-4.605 0-4.605 4.522-2.295 4.523-2.295 6.776-6.9l2.253-6.9c4.523-4.605 6.776-11.505 11.299-20.699 0-2.295 2.253 0 2.253-2.295s4.523-2.295 6.776-4.605c0 0-2.253-4.605 0-4.605 2.253-2.295 9.030-6.9 9.030-11.505v-2.295c2.253-2.294 6.776-4.605 9.030-6.9s4.522-4.605 6.776-4.605c0 0-2.253-4.605 0-4.605h2.254v-4.605h2.253v-4.605h2.253c2.253-2.295 0-4.605 2.254-6.9 0-2.295 4.522-2.295 6.776-2.295 2.253-2.294 4.523-6.9 6.776-11.505 4.522-6.9 4.522-11.505 9.030-18.405 0-2.294 2.253 0 2.253-2.294s4.522-6.9 6.776-6.9c2.253-2.295 2.253-6.9 6.776-11.505 0-2.295 2.253 0 2.253-2.295s4.523-6.9 6.776-6.9l2.253-4.605h6.776c2.253-2.294 13.552-4.605 18.075 0 2.253 2.295 2.253 0 2.253 2.295 0 4.605 6.776 4.605 6.776 9.194 0 4.605 9.030 13.799 13.552 23.010 9.030 16.111 20.328 29.91 24.849 39.104 6.779 11.505 11.3 20.7 20.332 32.204 0 2.294 2.253 0 2.253 2.294 0 4.605 6.774 4.605 6.774 9.194 0 4.605 6.779 6.9 9.032 9.194v4.605h2.253v4.605c4.521 4.605 6.779 6.9 13.553 13.8 4.521 6.9 11.3 13.799 15.821 20.699 2.253 2.295 6.779 4.605 6.779 6.9l2.253 6.9c0 0 4.521 2.294 6.774 2.294v4.605h2.253v4.605h2.253v4.605h2.258v4.605h2.253v4.605c15.821 9.194 22.595 39.104 38.4 55.213 2.253 2.295 6.779 4.605 9.032 6.9 6.774 6.9 13.553 13.8 24.852 16.11h6.774c4.521 4.605 18.074 2.295 40.658-2.295 13.553-2.295 27.105-2.295 33.879-6.9 2.253-2.295 9.032-9.194 11.3-13.8 20.439 6.82 22.692 2.214 20.439-4.685v-0.007z" />
<glyph unicode="&#xe908;" glyph-name="Star-Unfilled" d="M938.667 544.427l-306.773 26.453-119.893 282.453-119.893-282.88-306.773-26.027 232.96-201.813-69.973-299.947 263.68 159.147 263.68-159.147-69.547 299.947 232.533 201.813zM512 281.6l-160.427-96.853 42.667 182.613-141.653 122.88 186.88 16.213 72.533 171.947 72.96-172.373 186.88-16.213-141.653-122.88 42.667-182.613-160.853 97.28z" />
<glyph unicode="&#xe909;" glyph-name="Star" d="M512 874.667l95.791-294.819h309.995l-250.79-182.207 95.795-294.822-250.79 182.208-250.788-182.208 95.793 294.822-250.788 182.207h309.991l95.793 294.819z" />
<glyph unicode="&#xe90a;" glyph-name="arrow-right-thin" d="M647.153 99.758c-12.119 12.314-13.22 31.585-3.302 45.164l3.302 3.886 294.426 299.193-294.426 299.191c-12.119 12.314-13.22 31.582-3.302 45.16l3.302 3.89c12.119 12.314 31.084 13.433 44.447 3.358l3.825-3.358 318.582-323.716c12.114-12.313 13.215-31.582 3.302-45.16l-3.302-3.89-318.582-323.717c-13.327-13.542-34.939-13.542-48.271 0zM9.997 99.758c-12.118 12.314-13.22 31.585-3.305 45.164l3.305 3.886 294.427 299.193-294.427 299.191c-12.118 12.314-13.22 31.582-3.305 45.16l3.305 3.89c12.118 12.314 31.081 13.433 44.444 3.358l3.828-3.358 318.578-323.716c12.118-12.313 13.22-31.582 3.305-45.16l-3.305-3.89-318.578-323.717c-13.33-13.542-34.942-13.542-48.272 0zM328.572 99.758c-12.118 12.314-13.22 31.585-3.305 45.164l3.305 3.886 294.424 299.193-294.424 299.191c-12.118 12.314-13.22 31.582-3.305 45.16l3.305 3.89c12.118 12.314 31.081 13.433 44.444 3.358l3.828-3.358 318.58-323.716c12.114-12.313 13.22-31.582 3.302-45.16l-3.302-3.89-318.58-323.717c-13.33-13.542-34.942-13.542-48.272 0z" />
<glyph unicode="&#xe90b;" glyph-name="close-filled" d="M816 750.178c-166.4 165.985-439.467 165.985-605.867 0s-166.4-438.37 0-604.356c166.4-165.986 435.2-165.986 601.6 0s170.667 438.371 4.267 604.356zM632.533 269.248l-119.467 119.168-119.467-119.168-59.733 59.584 119.467 119.168-119.467 119.169 59.733 59.584 119.467-119.169 119.467 119.169 59.733-59.584-119.467-119.169 119.467-119.168-59.733-59.584z" />
<glyph unicode="&#xe90c;" glyph-name="tick" d="M512 874.667c-234.667 0-426.667-192-426.667-426.667s192-426.667 426.667-426.667c234.667 0 426.667 192 426.667 426.667s-192 426.667-426.667 426.667zM426.667 234.667l-213.333 213.333 60.16 60.16 153.173-152.747 323.84 323.84 60.16-60.587-384-384z" />
<glyph unicode="&#xe90d;" glyph-name="arrow-right-two" d="M0 832l378.653-384-378.653-383.375c78.528 0.481 156.987 0.727 235.379 0.727l377.629 382.648-376.196 381.613c-63.382 0-126.764 0.381-190.145 1.142 4.503 0-18.83 0.519-46.666 1.245zM412.825 829.406l376.095-381.405-377.733-382.859c50.76 0 101.519-0.379 152.279-1.142-11.254 0 39.506 0.937 81.874 0l378.65 384.001-377.626 382.443c-77.88-0.726-155.148-0.934-233.539-1.038z" />
<glyph unicode="&#xe90e;" glyph-name="arrow-right-bold" d="M0 140.8h207.263l231.887 306.107-233.939 308.293-205.211-2.186 238.044-303.92-238.044-308.293zM584.847 140.8h205.215l233.938 306.107-233.938 308.293-205.215-2.186 235.996-303.92-235.996-308.293zM293.451 140.8h205.211l233.939 306.107-233.939 308.293-205.211-2.186 235.993-303.92-235.993-308.293z" />
<glyph unicode="&#xe90f;" glyph-name="sq-box" d="M972.411 649.328c0 0.315-0.108 0.524-0.108 0.839 0 8.178-8.919 12.791-15.841 9.017-15.007-7.968-30.008-16.041-45.015-24.010-35.676-19.082-71.455-38.164-107.126-57.246-43.336-23.171-86.671-46.237-129.9-69.408-37.458-20.025-74.916-40.051-112.373-59.972-16.683-8.914-33.891-17.193-50.259-26.629-13.115 7.025-26.336 14.049-39.557 21.074-35.674 19.081-71.454 38.162-107.128 57.245-43.334 23.171-86.668 46.237-129.896 69.408-37.458 20.026-74.916 40.051-112.374 59.972-18.152 9.751-36.199 19.921-54.561 29.147-0.21 0.105-0.734 0.315-0.944 0.419-6.925 3.67-15.949-0.839-15.949-9.017v-406.695c0-18.662-0.525-37.535 0.21-56.305 0-0.312 0.105-0.522 0.105-0.84 0-3.564 1.994-7.337 5.246-9.016 14.899-7.967 29.903-15.933 44.908-23.905 35.884-19.185 71.768-38.267 107.653-57.457 43.229-23.066 86.458-46.131 129.687-69.197 37.353-19.922 74.811-39.839 112.164-59.868 18.257-9.748 36.304-19.917 54.666-29.148 0.315-0.102 0.525-0.312 0.734-0.415 2.099-1.157 4.092-1.469 5.981-1.26 0.104 0 0.104 0 0.209 0 1.469 0.102 3.043 0.522 4.407 1.26 14.9 7.967 29.904 15.933 44.803 23.905 35.882 19.185 71.769 38.267 107.655 57.452 43.228 23.066 86.456 46.136 129.684 69.202 37.356 19.917 74.706 39.839 112.061 59.863 18.15 9.754 37.038 18.662 54.769 29.148 0.21 0.108 0.732 0.317 0.942 0.42 3.988 2.099 5.356 5.555 5.356 9.016v406.804c0 18.557 0.522 37.43-0.21 56.197zM712.934 855.665c-3.569-2.097-7.24-4.089-10.808-6.186-2.939-1.677-5.77-3.25-8.709-4.927-0.732-0.419-1.469-0.839-2.099-1.258-37.458-21.283-74.916-42.462-112.374-63.746-46.166-26.212-92.333-52.318-138.499-78.53-39.976-22.646-79.847-45.293-119.719-67.94-10.702-6.081-21.405-11.953-32.212-17.929-3.672-1.992-7.24-4.089-10.807-6.081-3.568-2.097-7.135-4.089-10.702-6.186-16.788 8.912-33.681 17.824-50.469 26.631-35.255 18.558-70.404 37.22-105.659 55.778-14.69 7.758-29.379 15.517-44.068 23.276-6.82 3.565-6.82 14.469 0 18.139 0.944 0.524 1.889 1.049 2.938 1.573 20.775 11.009 41.55 21.913 62.325 32.922 38.297 20.235 76.7 40.471 114.997 60.706 42.18 22.227 84.254 44.454 126.434 66.787 33.261 17.509 66.522 35.019 99.678 52.528 9.023 4.718 18.047 9.541 27.070 14.259 5.771 3.041 10.702 6.5 17.628 3.145 17.627-8.702 34.835-18.348 52.253-27.575 36.618-19.292 73.129-38.583 109.752-57.98 11.013-5.767 22.031-11.533 33.050-17.404zM962.34 717.688c0.312-3.46-1.157-6.815-5.248-9.017-0.947-0.524-1.889-1.049-2.939-1.573-20.777-11.009-41.549-22.018-62.326-32.922-38.298-20.235-76.698-40.471-114.995-60.706-42.179-22.227-84.255-44.559-126.433-66.787-33.157-17.509-66.417-35.019-99.575-52.633-9.023-4.718-18.047-9.541-27.070-14.259-5.771-3.041-10.702-6.5-17.628-3.146-17.627 8.702-34.835 18.453-52.252 27.575-36.619 19.292-73.133 38.688-109.751 57.98-10.912 5.767-21.929 11.533-32.841 17.404 3.568 2.097 7.24 4.089 10.807 6.186 2.833 1.572 5.666 3.25 8.499 4.823 0.735 0.419 1.574 0.839 2.309 1.363 37.353 21.179 74.811 42.463 112.164 63.642 46.167 26.211 92.334 52.318 138.502 78.53 39.972 22.647 79.846 45.294 119.716 67.94 10.701 6.081 21.509 12.057 32.317 18.033 3.671 1.992 7.24 4.089 10.808 6.186s7.132 4.089 10.701 6.186c16.788-8.912 33.577-17.719 50.365-26.526 35.251-18.557 70.405-37.22 105.656-55.778 14.689-7.759 29.379-15.517 44.068-23.276 3.988-2.307 5.458-5.767 5.146-9.226z" />
<glyph unicode="&#xe910;" glyph-name="bag" d="M96.306 402.263l0.353 0.476c39.53 51.068 63.141 101.929 70.729 152.962 2.506 16.84 17.4 29.308 34.941 29.308h140.894l65.153-68.317c-53.294 0-176.859 0-176.859 0-8.188-33.407-21.882-66.848-41.33-100.257 0 0 647.398 0 647.367 0-18.181 33.41-32.507 66.85-42.885 100.257h-177.705l64.481 68.317h140.227c16.338 0 30.525-10.828 34.34-26.2 13.056-52.706 37.729-105.345 72.776-158.052l0.527-0.819 0.461-0.819 0.246-0.374 0.568-1.029 0.317-0.645 0.067-0.174 0.532-1.126 0.389-0.886 0.138-0.307c0.072-0.174 0.143-0.379 0.215-0.548l0.174-0.548 0.282-0.783c0.179-0.548 0.353-1.096 0.497-1.638l0.282-1.096c0.072-0.374 0.174-0.717 0.246-1.091l0.21-1.060 0.072-0.481 0.072-0.512 0.143-1.060 0.031-0.717 0.036-0.44 0.036-0.548 0.036-0.891 0.036-0.819-0.036-1.193-0.036-0.788-0.072-0.922-0.031-0.579-0.143-1.024-0.108-0.855-0.174-0.922-77.399-412.022c-3.036-16.225-17.684-28.042-34.729-28.042h-619.343c-17.047 0-31.694 11.817-34.729 28.042l-77.365 411.884c-0.106 0.548-0.212 1.060-0.282 1.572l-0.106 0.819-0.035 0.307c-0.035 0.343-0.071 0.717-0.106 1.060l-0.071 1.162v0.41l-0.035 0.65v0.783l0.035 0.886 0.035 0.62 0.071 0.85 0.071 0.855 0.071 0.65 0.106 0.783 0.176 0.891 0.212 1.126 0.176 0.717 0.106 0.445 0.141 0.548 0.247 0.886 0.282 0.819c0.035 0.169 0.106 0.343 0.176 0.548l0.282 0.783 0.141 0.307c0.071 0.205 0.141 0.379 0.212 0.548l0.212 0.548 0.353 0.753 0.141 0.338c0.106 0.174 0.176 0.343 0.282 0.548l0.424 0.855 0.424 0.717 0.6 1.024 0.353 0.584 0.353 0.543 0.459 0.65 0.282 0.374 0.282 0.379zM689.603 295.004v-18.514c0-40.612-16.66-79.59-46.346-108.314-29.681-28.728-69.914-44.851-111.915-44.851-12.847 0-25.836 0-38.683 0-42 0-82.235 16.123-111.918 44.851-29.682 28.723-46.341 67.702-46.341 108.314 0 10.419 0 17.249 0 18.514 0 48.916-70.588 36.618-70.588 0.205v-18.719c0-58.752 24.106-115.077 67.024-156.616s101.117-64.865 161.823-64.865c12.847 0 25.836 0 38.683 0 60.705 0 118.904 23.327 161.825 64.865 42.916 41.539 67.021 97.864 67.021 156.616 0 10.419 0 18.514 0 18.514 0 34.263-70.584 49.94-70.584 0.205v-0.205zM487.082 459.375c6.706-7.036 16.129-11.033 26.012-10.999s19.306 4.065 25.976 11.135l193.095 204.575c9.457 10.008 11.894 24.457 6.246 36.823-5.647 12.4-18.319 20.392-32.292 20.392h-81.956l29.471 199.69c1.449 9.803-1.551 19.744-8.259 27.224s-16.445 11.785-26.68 11.785h-211.378c-10.235 0-19.976-4.304-26.682-11.785s-9.706-17.421-8.259-27.224l29.471-199.69h-83.965c-14.012 0-26.718-8.027-32.329-20.461s-3.106-26.917 6.388-36.891l195.141-204.575z" />
<glyph unicode="&#xe911;" glyph-name="arrow-right" d="M842.339 423.898v-78.298l170.284 102.384-170.264 102.416-0.020-78.298h-830.96v-48.199l830.96-0.005z" />
<glyph unicode="&#xe912;" glyph-name="arrow-right-a1" d="M613.325 883.201l-103.482-104.555 232.824-232.824h-742.666v-146.586h742.666l-232.824-232.825 103.482-104.556 410.675 410.677-410.675 410.669z" />
<glyph unicode="&#xe913;" glyph-name="quote" d="M382.504 168.341c101.238 36.847 154.644 145.847 119.542 242.291-31.595 86.801-122.723 134.456-214.54 118.513 12.366 68.942 38.063 144.919 80.399 231.322 3.908 7.975 2.102 16.056-3.713 22.677-5.464 5.657-14.236 7.925-22.255 5.007-195.456-71.14-271.689-332.62-207.099-510.080 35.805-98.372 146.43-146.577 247.667-109.73zM305.962 724.816c-36.021-81.92-57.408-154.145-65.765-221.627-0.652-1.329 1.053-2.894 1.404-3.858 0.702-1.929-0.952-3.623-0.601-4.588s1.705-1.564 2.055-2.528c1.053-2.893 2.407-3.493 5.464-5.657 1.705-1.564 4.411-2.763 6.767-2.998 1.353-0.599 1.705-1.564 2.707-1.199 1.353-0.599 3.007 1.095 4.009 1.46 2.004 0.73 3.709-0.835 4.711-0.47 79.185 28.821 165.802-9.555 193.531-85.748 27.733-76.19-13.952-161.263-93.136-190.084-79.185-28.821-165.801 9.553-193.532 85.747-0.351 0.964-0.351 0.964-0.702 1.929-49.246 141.539-1.32 343.567 133.087 429.622zM598.302 276.113c35.456-97.408 146.082-145.613 247.317-108.766s154.641 145.843 119.189 243.255c-31.595 86.801-122.722 134.456-214.541 118.513 12.369 68.942 38.063 144.919 80.401 231.322 3.908 7.976 2.099 16.056-3.716 22.677-5.461 5.657-14.234 7.925-22.251 5.007-194.756-73.069-271.339-333.585-206.4-512.008zM769.075 723.821c-36.019-81.92-57.408-154.145-65.762-221.628-0.653-1.329 1.050-2.893 1.404-3.857 0.7-1.929-0.951-3.623-0.602-4.588s1.702-1.564 2.057-2.529c1.054-2.893 2.406-3.493 5.461-5.656 1.707-1.564 4.412-2.764 6.767-2.998 1.357-0.6 1.707-1.564 2.709-1.199 1.353-0.599 3.008 1.094 4.006 1.459 2.005 0.73 3.712-0.835 4.715-0.469 79.185 28.821 165.798-9.556 193.532-85.748 27.729-76.19-13.952-161.263-93.137-190.084s-164.096 7.991-191.829 84.181c-0.35 0.964-0.35 0.964-0.7 1.929-51.302 144.069-3.025 345.132 131.379 431.188z" />
<glyph unicode="&#xe914;" glyph-name="icon-1" d="M1024 132.741l-174.3 132.741v-66.371h-99.041c32.307 48.963 50.017 106.675 50.017 165.924 0 106.045-54.871 199.113-137.114 252.109l45.839 46.559h303.698v232.296h-326.804v-208.835l-52.47-53.279c-38.579 18.899-81.654 29.817-127.275 29.817s-88.695-10.918-127.274-29.817l-52.469 53.279v208.835h-326.807v-232.296h303.702l45.851-46.559c-82.257-52.997-137.128-146.064-137.128-252.109 0-61.358 18.367-118.436 49.74-165.924h-196.803v-33.188h222.588c23.89-27.013 52.42-49.592 84.479-66.371h-372.429v-33.183h849.7v-66.371l174.3 132.741zM718.976 862.815h261.443v-165.926h-261.443v165.926zM294.126 696.889h-261.445v165.926h261.445v-165.926zM506.55 99.553c-144.154 0-261.445 119.101-261.445 265.482s117.291 265.483 261.445 265.483c144.156 0 261.445-119.102 261.445-265.483 0-60.314-20.603-118.866-57.846-165.924h-95.457c52.941 35.692 87.941 96.717 87.941 165.924 0 109.795-87.956 199.113-196.083 199.113-108.124 0-196.084-89.318-196.084-199.113 0-109.793 87.96-199.112 196.084-199.112h375.825v33.188l87.148-66.371-87.148-66.371v33.183h-375.825zM506.55 199.112c-90.1 0-163.403 74.435-163.403 165.924 0 91.493 73.303 165.927 163.403 165.927s163.402-74.435 163.402-165.927c0-91.489-73.303-165.924-163.402-165.924zM32.681 199.112h-32.681v-33.188h32.681v33.188zM947.743 829.628h-196.086v-33.185h196.086v33.185zM947.738 763.257h-32.681v-33.185h32.681v33.185zM882.381 763.257h-130.724v-33.185h130.724v33.185zM261.447 829.628h-196.084v-33.185h196.084v33.185zM196.085 763.257h-130.723v-33.185h130.723v33.185zM261.443 763.257h-32.68v-33.185h32.68v33.185zM620.933 348.447v66.37h-32.681v-66.37h-32.681v99.555h-32.681v-99.555h-32.68v33.183h-32.681v-33.183h-32.68v66.37h-32.681v-66.37h-32.68v-33.188h294.127v33.188h-32.681z" />
<glyph unicode="&#xe915;" glyph-name="icon-2" d="M1024 751.945c-0.2 1.415-0.517 2.811-0.942 4.175-0.236 0.475-0.236 0.902-0.471 1.376-0.799 1.668-1.797 3.23-2.975 4.65h-0.236l-192.026 193.204c-1.306 1.281-2.78 2.368-4.388 3.226-0.573-0.038-1.142 0.13-1.603 0.474-1.341 0.416-2.749 0.577-4.152 0.474-0.236 0-0.471 0.474-0.942 0.474h-538.55c-2.045-0.007-4.069-0.42-5.955-1.216s-3.597-1.96-5.034-3.424c-1.438-1.464-2.573-3.199-3.342-5.106s-1.155-3.948-1.137-6.006v-95.938h-4.15c-7.566-0.002-14.822-3.027-20.172-8.41s-8.357-12.683-8.359-20.296v-22.727c-7.935-1.561-15.776-3.573-23.485-6.026l-11.035 19.453c-1.896 3.265-4.414 6.119-7.411 8.401s-6.412 3.944-10.050 4.892c-3.638 0.948-7.427 1.163-11.147 0.632s-7.301-1.797-10.533-3.724l-34.096-19.453c-6.562-3.843-11.339-10.147-13.285-17.531s-0.899-15.242 2.91-21.85l11.082-19.453c-5.8-5.551-11.554-11.102-16.836-17.128l-19.571 11.103c-6.601 3.791-14.426 4.797-21.763 2.796s-13.585-6.845-17.379-13.471l-19.571-33.83c-3.753-6.759-4.751-14.721-2.782-22.205 0.97-3.677 2.652-7.126 4.95-10.146s5.168-5.555 8.443-7.457l19.335-11.15c-2.542-7.603-4.698-15.331-6.461-23.154h-22.117c-7.601 0.012-14.896-3.007-20.288-8.396s-8.441-12.709-8.479-20.357v-39.808c0.046-7.644 3.097-14.96 8.487-20.347s12.681-8.41 20.279-8.406h22.117c1.763-7.823 3.919-15.551 6.461-23.154l-19.335-11.577c-3.272-1.88-6.143-4.39-8.449-7.389s-3.999-6.426-4.985-10.084c-0.986-3.659-1.244-7.477-0.759-11.237s1.702-7.386 3.583-10.669l19.571-33.833c3.794-6.625 10.043-11.469 17.379-13.471s15.162-0.993 21.763 2.796l19.571 11.151c5.282-6.026 11.036-11.622 16.836-17.178l-11.318-19.451c-3.721-6.651-4.694-14.51-2.709-21.878s6.769-13.655 13.32-17.505l34.096-19.927c6.596-3.676 14.34-4.68 21.645-2.801 7.273 2.191 13.498 6.984 17.496 13.476l11.035 19.456c7.709-2.452 15.55-4.465 23.485-6.026v-22.728c0.002-7.613 3.009-14.915 8.359-20.296s12.606-8.407 20.172-8.412h4.15v-338.248c0.054-4.086 1.71-7.982 4.607-10.844s6.801-4.454 10.861-4.434h730.863c4.055-0.010 7.946 1.587 10.834 4.449s4.536 6.753 4.588 10.829v800.667zM971.039 766.749h-139.116v139.969l139.116-139.969zM247.299 369.239c-14.577 2.263-28.859 6.144-42.584 11.576-3.454 1.367-7.287 1.408-10.771 0.123s-6.381-3.809-8.139-7.096l-16.552-28.708-29.71 17.603 16.364 28.708c1.859 3.215 2.505 6.999 1.821 10.66s-2.653 6.948-5.547 9.267c-11.356 9.298-21.766 19.707-31.077 31.078-2.27 2.959-5.546 4.977-9.2 5.658-3.655 0.682-7.431-0.014-10.607-1.956l-28.531-16.23-17.26 30.13 28.531 16.18c3.181 1.974 5.585 4.994 6.806 8.548s1.182 7.423-0.11 10.952c-5.398 13.728-9.257 28.019-11.506 42.608-0.599 3.71-2.477 7.090-5.305 9.546s-6.427 3.83-10.163 3.881h-32.681v34.304h32.681c3.76-0.035 7.404 1.309 10.25 3.78s4.702 5.901 5.218 9.648c2.248 14.604 6.108 28.911 11.506 42.655 1.287 3.522 1.324 7.384 0.103 10.929s-3.623 6.558-6.799 8.524l-28.531 16.179 17.26 30.129 28.531-16.227c3.15-2.049 6.961-2.802 10.647-2.104s6.965 2.793 9.16 5.853c9.312 11.354 19.722 21.748 31.077 31.030 2.894 2.319 4.863 5.608 5.547 9.267s0.037 7.442-1.821 10.661l-16.364 28.705 29.71 17.176 16.552-28.278c1.759-3.289 4.654-5.815 8.139-7.1s7.317-1.241 10.771 0.125c13.733 5.418 28.012 9.316 42.584 11.624 3.645 0.536 6.977 2.375 9.385 5.181s3.73 6.39 3.725 10.097v33.355h34.567v-33.355c-0.005-3.707 1.317-7.291 3.725-10.097s5.739-4.645 9.384-5.181c14.574-2.302 28.853-6.2 42.585-11.624 3.454-1.366 7.286-1.411 10.771-0.125s6.381 3.811 8.139 7.1l16.553 28.278 29.71-17.176-16.317-28.705c-1.822-3.225-2.451-6.993-1.778-10.64s2.606-6.937 5.457-9.288c11.366-9.27 21.777-19.665 31.077-31.030 2.245-3.066 5.564-5.158 9.286-5.854s7.566 0.057 10.757 2.106l28.295 16.227 17.26-30.129-28.531-16.179c-3.176-1.967-5.579-4.978-6.799-8.524s-1.184-7.407 0.102-10.929c5.414-13.743 9.289-28.049 11.554-42.655 0.498-3.746 2.341-7.179 5.182-9.653s6.482-3.816 10.238-3.775h32.681v-34.304h-32.681c-3.732-0.046-7.328-1.419-10.151-3.876s-4.689-5.841-5.27-9.551c-2.265-14.59-6.14-28.881-11.554-42.608-1.291-3.529-1.33-7.398-0.109-10.952s3.625-6.574 6.806-8.548l28.531-16.179-17.26-30.131-28.295 16.23c-3.216 1.942-7.026 2.639-10.716 1.957s-7.006-2.695-9.326-5.659c-9.299-11.382-19.71-21.791-31.078-31.078-2.851-2.35-4.784-5.642-5.456-9.288s-0.044-7.414 1.778-10.639l16.316-28.708-29.71-17.603-16.553 28.708c-1.758 3.287-4.654 5.811-8.139 7.096s-7.317 1.244-10.771-0.123c-13.716-5.463-28.001-9.344-42.585-11.576-3.677-0.481-7.048-2.314-9.467-5.14-2.419-2.831-3.716-6.456-3.642-10.184v-32.881h-34.567v32.881c0.073 3.727-1.224 7.352-3.643 10.184-2.419 2.826-5.79 4.659-9.467 5.14zM993.111-32.968h-699.974v322.493h4.15c7.591-0.005 14.876 3.011 20.265 8.387 5.39 5.381 8.446 12.682 8.501 20.321v22.728c7.858 1.562 15.62 3.574 23.249 6.026l11.036-19.456c3.853-6.574 10.11-11.372 17.433-13.368 7.323-1.992 15.131-1.029 21.755 2.693l34.048 19.927c6.553 3.901 11.34 10.214 13.346 17.603 0.957 3.651 1.187 7.45 0.677 11.187s-1.75 7.337-3.649 10.593l-11.035 19.451c5.89 5.427 11.493 11.162 16.788 17.178l19.571-11.151c3.182-2.038 6.774-3.338 10.516-3.814s7.543-0.113 11.13 1.065c3.661 0.87 7.094 2.524 10.070 4.838s5.428 5.243 7.19 8.586l19.805 33.833c1.884 3.28 3.108 6.904 3.599 10.661 0.486 3.758 0.236 7.576-0.748 11.235s-2.673 7.087-4.977 10.087c-2.299 3-5.166 5.514-8.438 7.396l-19.146 11.577c2.463 7.607 4.54 15.335 6.225 23.154h22.352c7.562 0.045 14.802 3.090 20.142 8.474 5.345 5.384 8.356 12.671 8.392 20.279v39.808c-0.026 7.61-3.036 14.902-8.381 20.287s-12.585 8.429-20.152 8.465h-22.352c-1.684 7.819-3.762 15.547-6.225 23.154l19.146 11.15c6.6 3.915 11.402 10.282 13.379 17.729s0.968 15.376-2.816 22.079l-19.805 33.829c-1.768 3.345-4.22 6.276-7.195 8.598s-6.406 3.985-10.065 4.877c-3.608 1.041-7.388 1.33-11.11 0.849s-7.307-1.723-10.535-3.648l-19.571-11.103c-5.295 6-10.899 11.718-16.788 17.128l11.035 19.453c3.78 6.615 4.81 14.463 2.867 21.838s-6.702 13.68-13.241 17.543l-34.049 19.453c-3.234 1.937-6.818 3.21-10.544 3.745s-7.52 0.323-11.164-0.626c-3.644-0.949-7.065-2.614-10.065-4.9s-5.521-5.148-7.416-8.42l-11.036-19.453c-7.629 2.452-15.392 4.464-23.249 6.026v22.727c-0.055 7.637-3.111 14.942-8.501 20.319s-12.674 8.393-20.265 8.386h-4.15v80.612h507.708v-177.926c-0.020-2.054 0.364-4.092 1.132-5.997 0.763-1.905 1.894-3.638 3.328-5.102s3.139-2.628 5.018-3.427c1.884-0.798 3.901-1.215 5.944-1.227h176.845v-768.211zM414.711 568.942c-0.051 27.255-8.131 53.884-23.219 76.521s-36.507 40.265-61.55 50.659c-25.042 10.393-52.586 13.085-79.149 7.734s-50.953-18.503-70.088-37.796c-19.136-19.292-32.158-43.859-37.422-70.595s-2.531-54.442 7.851-79.617c10.382-25.175 27.948-46.688 50.478-61.821 22.53-15.136 49.013-23.21 76.103-23.205 36.349 0.108 71.175 14.705 96.851 40.592 25.677 25.887 40.112 60.956 40.144 97.527zM171.562 568.942c-0.037 21.132 6.157 41.8 17.798 59.388s28.208 31.308 47.601 39.42c19.394 8.113 40.744 10.255 61.348 6.156s39.537-14.257 54.402-29.186c14.865-14.929 24.994-33.959 29.105-54.682s2.020-42.207-6.009-61.734c-8.029-19.527-21.635-36.218-39.096-47.963s-37.992-18.013-58.996-18.013c-28.124-0.010-55.102 11.213-75.007 31.203s-31.107 47.113-31.147 75.409zM883.753 384.517c-2.975 2.749-5.99 5.074-8.96 7.875-0.241 0.476-0.241 0.901-0.712 0.901-0.092 0.164-0.23 0.297-0.399 0.384-0.164 0.082-0.353 0.118-0.543 0.092-42.056 37.263-96.881 56.6-152.858 53.908-55.982-2.693-108.718-27.203-147.052-68.332-38.333-41.134-59.249-95.662-58.322-152.038 0.932-56.381 23.634-110.182 63.304-150.011 10.271-10.752 21.78-20.229 34.284-28.232h0.236c12.856-8.724 26.691-15.887 41.216-21.35 24.622-9.503 50.775-14.362 77.153-14.331 44.887 0.067 88.648 14.141 125.251 40.284 9.8 7.060 18.964 14.966 27.397 23.629 12.713 12.769 23.772 27.1 32.916 42.655 0.241 0.425 0.476 0.901 0.947 0.901-0.036 0.251-0.010 0.507 0.072 0.748 0.082 0.236 0.215 0.456 0.399 0.63 23.624 41.467 33.065 89.59 26.86 136.975-6.2 47.386-27.699 91.412-61.189 125.312zM897.802 150.984l-80.123 46.781c3.845 10.552 5.868 21.688 5.99 32.927-0.015 21.238-7.255 41.83-20.511 58.363l61.491 69.98c25.789-27.238 42.767-61.701 48.686-98.847s0.502-75.223-15.534-109.204zM687.334 186.66c-8.658 8.673-14.566 19.732-16.973 31.785s-1.198 24.55 3.461 35.912c4.664 11.366 12.57 21.079 22.728 27.914 10.153 6.835 22.093 10.481 34.314 10.481 10.138 0 20.127-2.514 29.071-7.322s16.573-11.756 22.216-20.239c5.637-8.479 9.114-18.227 10.117-28.38s-0.497-20.398-4.367-29.829c-3.871-9.431-9.989-17.761-17.823-24.243-7.828-6.487-17.126-10.931-27.069-12.938s-20.224-1.521-29.932 1.418c-9.713 2.944-18.555 8.248-25.743 15.442zM779.674 309.453c-10.081 6.508-21.356 10.911-33.157 12.954v93.614c34.396-2.755 67.308-15.293 94.884-36.152l-61.727-70.415zM600.279 362.266c30.787 31.165 71.629 50.232 115.164 53.755v-93.614c-18.97-3.128-36.465-12.216-49.992-25.953-8.586-8.637-15.401-18.893-20.050-30.177-4.649-11.29-7.040-23.388-7.040-35.604 0-12.221 2.391-24.32 7.040-35.604 4.649-11.29 11.464-21.545 20.050-30.182 0.947-0.947 1.843-1.377 2.785-2.324l-51.359-78.29c-5.852 4.557-11.397 9.503-16.599 14.807-34.606 34.939-54.042 82.263-54.042 131.594s19.436 96.65 54.042 131.594zM838.385 79.15c-24.842-17.797-53.678-29.138-83.932-33.014-30.249-3.876-60.989-0.164-89.472 10.808-7.511 2.852-14.807 6.246-21.832 10.153l50.883 78.336c11.607-5.146 24.146-7.828 36.833-7.88 24.602 0.056 48.195 9.876 65.644 27.331 1.956 1.9 3.799 3.912 5.519 6.026l80.118-47.258c-6.159-8.673-12.933-16.891-20.275-24.576-7.286-7.27-15.135-13.932-23.485-19.927zM633.431 674.085h297.994c2.048 0.031 4.076-0.347 5.975-1.113s3.625-1.904 5.084-3.347c1.459-1.444 2.616-3.165 3.405-5.063s1.198-3.935 1.198-5.992c0-2.058-0.41-4.095-1.198-5.992s-1.946-3.619-3.405-5.063c-1.459-1.444-3.185-2.582-5.084-3.347s-3.927-1.144-5.975-1.113h-297.994c-4.086 0-8.013 1.634-10.9 4.544-2.893 2.91-4.521 6.856-4.521 10.971s1.628 8.061 4.521 10.971c2.888 2.91 6.815 4.545 10.9 4.545zM947.082 580.946c-0.010-2.043-0.425-4.063-1.224-5.942s-1.956-3.58-3.415-5.002c-1.459-1.422-3.185-2.538-5.074-3.282-1.894-0.744-3.912-1.101-5.944-1.051h-159.109c-2.017-0.046-4.024 0.316-5.903 1.065-1.874 0.749-3.579 1.868-5.018 3.293s-2.58 3.125-3.354 5.001c-0.773 1.875-1.162 3.888-1.147 5.919-0.026 2.056 0.353 4.098 1.111 6.006 0.763 1.908 1.894 3.645 3.328 5.11s3.144 2.629 5.028 3.425c1.884 0.796 3.912 1.207 5.955 1.211h159.109c2.058 0.002 4.096-0.406 5.996-1.197s3.625-1.951 5.079-3.415c1.454-1.463 2.611-3.2 3.395-5.111 0.788-1.912 1.193-3.961 1.188-6.030zM618.010 580.946c-0.020 2.055 0.358 4.095 1.121 6.001 0.768 1.906 1.9 3.642 3.333 5.106s3.139 2.629 5.023 3.426c1.884 0.797 3.901 1.211 5.944 1.219h66.78c2.043-0.003 4.070-0.413 5.96-1.208 1.884-0.795 3.599-1.958 5.038-3.423s2.57-3.202 3.338-5.11c0.768-1.909 1.152-3.952 1.132-6.011 0.005-2.033-0.389-4.047-1.167-5.924s-1.92-3.577-3.364-5.001c-1.439-1.424-3.149-2.543-5.028-3.291s-3.891-1.108-5.908-1.062h-66.78c-2.017-0.042-4.019 0.323-5.893 1.073s-3.579 1.87-5.018 3.294c-1.439 1.424-2.575 3.123-3.354 4.997-0.773 1.874-1.167 3.885-1.157 5.915zM618.010 503.608c0.061 4.074 1.71 7.962 4.598 10.821s6.774 4.461 10.824 4.457h236.268c2.043 0.032 4.076-0.346 5.975-1.112 1.894-0.765 3.625-1.903 5.084-3.347 1.454-1.444 2.611-3.165 3.405-5.063 0.788-1.898 1.193-3.936 1.193-5.993s-0.404-4.095-1.193-5.993c-0.794-1.898-1.951-3.619-3.405-5.063-1.459-1.444-3.19-2.582-5.084-3.347-1.9-0.765-3.932-1.143-5.975-1.112h-236.268c-2.043 0.008-4.060 0.422-5.944 1.219s-3.589 1.961-5.023 3.426c-1.434 1.465-2.565 3.2-3.328 5.106-0.768 1.906-1.147 3.946-1.126 6.001z" />
<glyph unicode="&#xe916;" glyph-name="icon-3" d="M900.106 289.326c-4.188 4.183-10.24 5.832-15.964 4.291l-63.749-17.065-58.573 58.573c15.631 34.463 24.438 72.673 24.438 112.86s-8.806 78.393-24.438 112.856l58.573 58.575 63.749-17.066c5.724-1.542 11.776 0 15.964 4.294l119.014 119.022c4.188 4.184 5.837 10.24 4.296 15.965l-23.229 86.542c-1.541 5.725-5.944 10.129-11.674 11.671-5.724 1.541-11.781 0-15.964-4.294l-87.967-87.973-57.585 15.415-15.416 57.585 87.972 87.973c4.183 4.184 5.837 10.24 4.296 15.965s-5.944 10.13-11.674 11.671l-86.538 23.232c-5.724 1.541-11.781 0-15.964-4.294l-119.020-119.023c-4.183-4.184-5.832-10.239-4.291-15.965l17.065-63.75-58.573-58.575c-34.463 15.635-72.668 24.443-112.855 24.443s-78.391-8.808-112.853-24.443l-58.573 58.575 17.065 63.75c1.542 5.726 0 11.781-4.294 15.965l-119.018 119.023c-4.184 4.184-10.239 5.836-15.965 4.294l-86.539-23.232c-5.725-1.541-10.129-5.946-11.671-11.671s0-11.781 4.294-15.965l87.97-87.973-15.414-57.585-57.583-15.415-87.97 87.973c-4.184 4.184-10.239 5.835-15.965 4.294s-10.129-5.946-11.671-11.671l-23.231-86.542c-1.541-5.725 0-11.781 4.294-15.965l119.019-119.022c4.184-4.184 10.239-5.836 15.965-4.294l63.748 17.066 58.573-58.575c-15.634-34.463-24.442-72.669-24.442-112.856s8.808-78.397 24.442-112.86l-58.573-58.573-63.748 17.065c-5.725 1.541-11.781 0-15.965-4.291l-119.019-119.025c-4.184-4.183-5.835-10.24-4.294-15.964l23.231-86.543c1.541-5.724 5.945-10.127 11.671-11.668s11.781 0 15.965 4.291l87.97 87.977 57.583-15.416 15.414-57.585-87.97-87.972c-4.184-4.183-5.835-10.24-4.294-15.964 1.541-5.729 5.945-10.132 11.671-11.674l86.539-23.229c1.432-0.333 2.863-0.553 4.294-0.553 4.294 0 8.588 1.654 11.671 4.844l119.018 119.025c4.184 4.183 5.836 10.24 4.294 15.964l-17.065 63.749 58.573 58.578c34.462-15.636 72.666-24.443 112.853-24.443s78.392 8.806 112.855 24.443l58.573-58.578-17.065-63.749c-1.541-5.724 0-11.781 4.291-15.964l119.020-119.025c3.195-3.19 7.378-4.844 11.674-4.844 1.428 0 2.862 0.22 4.291 0.553l86.538 23.229c5.729 1.541 10.132 5.944 11.674 11.674 1.541 5.724 0 11.781-4.296 15.964l-87.972 87.972 15.416 57.585 57.585 15.416 87.967-87.977c4.183-4.183 10.24-5.832 15.964-4.291 5.729 1.541 10.132 5.944 11.674 11.668l23.229 86.543c1.541 5.724 0 11.781-4.296 15.964l-119.014 119.025zM885.243 182.743l-75.971-20.367c-5.724-1.541-10.132-5.949-11.674-11.674l-20.367-75.971c-1.541-5.724 0-11.781 4.296-15.964l74.537-74.542-49.766-13.322-105.477 105.477 17.065 63.754c1.546 5.724 0 11.781-4.291 15.964l-58.132 58.132c36.664 22.574 67.712 53.622 90.281 90.286l58.132-58.132c4.183-4.183 10.24-5.837 15.964-4.296l63.749 17.065 105.477-105.477-13.322-49.766-74.537 74.537c-4.188 4.183-10.24 5.837-15.964 4.296zM512 206.746c-30.938 0-60.555 5.944-87.75 16.625-5.505 2.202-11.010 4.516-16.295 7.050-5.175 2.529-10.239 5.171-15.304 8.033-37.544 21.473-68.813 52.741-90.282 90.286-2.863 4.956-5.615 10.020-8.037 15.304-2.532 5.289-4.845 10.793-7.047 16.297-10.679 27.197-16.625 56.812-16.625 87.753 0 30.939 5.946 60.557 16.625 87.753 2.202 5.506 4.514 11.011 7.047 16.295 2.532 5.175 5.175 10.24 8.037 15.305 21.47 37.545 52.738 68.815 90.282 90.285 4.955 2.863 10.019 5.616 15.304 8.038 5.285 2.532 10.79 4.845 16.295 7.047 27.195 10.68 56.812 16.626 87.75 16.626 30.94 0 60.554-5.946 87.752-16.626 5.504-2.202 11.008-4.514 16.292-7.047 5.176-2.532 10.24-5.175 15.304-8.038 37.545-21.47 68.813-52.74 90.286-90.285 2.862-4.955 5.612-10.019 8.033-15.305 2.534-5.285 4.849-10.79 7.050-16.295 10.68-27.195 16.625-56.814 16.625-87.753 0-30.942-5.944-60.556-16.625-87.753-2.202-5.504-4.516-11.008-7.050-16.297-2.529-5.171-5.171-10.24-8.033-15.304-21.473-37.545-52.741-68.813-90.286-90.286-4.951-2.862-10.020-5.612-15.304-8.033-5.284-2.534-10.788-4.849-16.292-7.050-27.197-10.68-56.812-16.625-87.752-16.625zM310.406 156.206c-4.184-4.183-5.835-10.24-4.294-15.964l17.065-63.749-105.476-105.482-49.765 13.327 74.538 74.537c4.184 4.183 5.835 10.24 4.294 15.964l-20.369 75.976c-1.541 5.724-5.945 10.127-11.671 11.668l-75.97 20.372c-5.725 1.541-11.781 0-15.964-4.296l-74.538-74.542-13.322 49.766 105.476 105.482 63.748-17.065c5.725-1.546 11.781 0 15.965 4.291l58.133 58.138c22.57-36.664 53.619-67.717 90.282-90.286l-58.133-58.138zM204.159 653.878l-63.748-17.066-105.476 105.48 13.322 49.767 74.538-74.54c4.184-4.184 10.239-5.836 15.964-4.294l75.97 20.369c5.725 1.541 10.129 5.945 11.671 11.671l20.369 75.972c1.541 5.725 0 11.781-4.294 15.965l-74.538 74.54 49.765 13.323 105.476-105.48-17.065-63.75c-1.541-5.725 0-11.781 4.294-15.965l58.133-58.135c-36.663-22.571-67.712-53.62-90.282-90.285l-58.133 58.135c-4.184 4.184-10.239 5.835-15.965 4.294zM713.482 739.869c4.183 4.184 5.837 10.24 4.296 15.965l-17.065 63.75 105.477 105.48 49.761-13.323-74.537-74.54c-4.183-4.184-5.832-10.24-4.291-15.965l20.367-75.972c1.541-5.725 5.944-10.129 11.668-11.671l75.971-20.369c5.724-1.542 11.781 0 15.964 4.294l74.537 74.54 13.322-49.767-105.477-105.48-63.744 17.066c-5.729 1.541-11.781 0-15.964-4.294l-58.138-58.135c-22.569 36.665-53.617 67.714-90.281 90.285l58.132 58.135zM633.108 296.812c8.479 0 15.304 6.385 16.297 14.531h0.881c9.139 0 16.517 7.378 16.517 16.517v94.029c0 9.139-7.378 16.517-16.517 16.517h-46.351l6.825 87.532 4.296 55.493c0.66 9.139-6.057 17.066-15.196 17.726-9.247 0.661-17.065-6.055-17.725-15.194l-3.415-43.932-7.926-101.625h-117.917l-10.019 128.821-1.321 16.626c-0.66 9.139-8.588 15.855-17.726 15.194s-15.855-8.698-15.194-17.726l6.055-78.284 5.065-64.743h-46.352c-9.139 0-16.515-7.373-16.515-16.512v-94.029c0-9.139 7.376-16.517 16.515-16.517h0.881c0.991-8.146 7.817-14.536 16.295-14.536s15.304 6.39 16.295 14.536h209.85c0.993-8.146 7.818-14.536 16.297-14.536l0.108 0.113zM512.22 344.376h-122.211v60.995h243.76v-60.995h-121.549zM451.445 545.315c-6.276 6.606-5.945 17.066 0.66 23.342 16.295 15.305 37.434 23.782 59.675 23.782 2.422 0 4.844-0.11 7.158-0.33 6.605-0.55 13.21-1.871 19.487-3.853 5.617-1.762 11.008-4.184 16.184-7.157 6.057-3.414 11.781-7.487 16.845-12.332 6.605-6.276 6.938-16.736 0.66-23.342-0.66-0.66-1.321-1.211-1.981-1.761-2.97-2.312-6.497-3.524-10.020-3.524-4.070 0-8.146 1.542-11.341 4.514-5.612 5.285-12.109 9.029-19.154 11.561-5.729 1.982-11.781 3.193-17.948 3.193-2.863 0-5.725-0.33-8.588-0.771-10.57-1.652-20.479-6.386-28.516-13.983-6.606-6.276-17.065-5.945-23.341 0.66h0.22zM555.822 505.238c-3.195-2.863-7.050-4.184-11.013-4.184-4.511 0-9.027 1.871-12.329 5.505-10.68 12.001-30.609 12.001-41.289 0-6.056-6.826-16.515-7.377-23.342-1.321s-7.377 16.516-1.321 23.342c11.56 12.882 28.076 20.369 45.251 20.369 17.178 0 33.69-7.377 45.251-20.369 6.057-6.826 5.504-17.286-1.321-23.342h0.113zM540.739 492.466c6.052-6.826 5.504-17.287-1.321-23.342-3.195-2.753-7.050-4.184-11.013-4.184-4.516 0-9.027 1.872-12.329 5.506-0.66 0.771-2.094 1.871-4.186 1.871s-3.633-1.211-4.294-1.982c-6.055-6.826-16.515-7.377-23.341-1.321s-7.377 16.516-1.321 23.342c7.377 8.258 17.837 12.992 28.847 12.992 11.008 0 21.581-4.734 28.846-12.992l0.113 0.11zM597.99 367.606c-1.101 2.202-1.761 4.736-1.761 7.27 0 4.291 1.761 8.586 4.844 11.668 1.869 1.874 4.291 2.975 6.825 3.743 5.724 1.654 12.221 0.553 16.517-3.743 3.082-3.082 4.844-7.378 4.844-11.668 0-4.296-1.761-8.591-4.844-11.674-3.087-3.082-7.378-4.844-11.674-4.844-4.291 0-8.586 1.761-11.668 4.844-1.321 1.321-2.314 2.862-3.082 4.403zM591.601 374.876c0-4.296-1.761-8.591-4.844-11.674-0.768-0.768-1.541-1.428-2.422-2.089-0.988-0.553-1.869-1.101-2.862-1.434-0.993-0.44-2.094-0.773-3.082-0.993-1.101-0.22-2.202-0.328-3.302-0.328s-2.094 0-3.195 0.328c-1.101 0.333-2.089 0.553-3.082 0.993-0.988 0.333-1.981 0.881-2.862 1.434-0.881 0.66-1.761 1.321-2.534 2.089-3.082 3.082-4.844 7.378-4.844 11.674 0 4.291 1.761 8.586 4.844 11.668 3.855 3.855 9.58 5.617 14.976 4.516 0.988-0.22 2.089-0.553 3.082-0.881 0.993-0.44 1.874-0.993 2.862-1.541 0.881-0.66 1.654-1.321 2.422-2.094 3.082-3.082 4.844-7.378 4.844-11.668zM549.212 386.545c3.082-3.082 4.849-7.378 4.849-11.668 0-4.296-1.766-8.591-4.849-11.674s-7.373-4.844-11.668-4.844c-4.296 0-8.586 1.761-11.668 4.844-3.087 3.082-4.849 7.378-4.849 11.674 0 4.291 1.761 8.586 4.849 11.668 6.164 6.164 17.172 6.164 23.337 0zM444.619 374.876c0-6.497-3.744-12.001-9.139-14.756-2.202-1.101-4.734-1.761-7.376-1.761h-17.066c-9.138 0-16.515 7.378-16.515 16.517 0 1.101 0.11 2.089 0.331 3.082 1.431 7.598 8.147 13.43 16.184 13.43h17.066c9.138 0 16.515-7.373 16.515-16.512z" />
<glyph unicode="&#xe917;" glyph-name="icon-4" d="M1024 520.503v426.274c0 7.299-5.376 13.222-12.001 13.222h-999.999c-6.624 0-12-5.924-12-13.222v-800.243c0-7.296 5.376-13.22 12-13.22h660.625c3.133 0 6.221 1.377 8.479 3.881l339.374 373.946c2.227 2.45 3.523 6.558 3.523 9.361zM24 933.555h975.997v-399.847h-264.847c-41.088 0-74.527-36.847-74.527-82.138v-291.811h-636.623v773.796zM684.626 178.463v273.125c0 30.711 22.671 55.693 50.524 55.693h247.875l-298.399-328.818zM415.040 707.995h136.174c17.408 0 31.57 15.602 31.57 34.784v59.131c0 19.182-14.162 34.784-31.57 34.784h-136.174c-17.408 0-31.584-15.602-31.584-34.784v-16.343h-25.792c-6.624 0-12-5.924-12-13.222v-137.249h-150.464l0.224 72.9h63.12c17.408 0 31.584 15.602 31.584 34.784v88.59c0 19.182-14.176 34.784-31.584 34.784h-136.176c-17.408 0-31.568-15.603-31.568-34.784v-88.59c0-19.182 14.16-34.784 31.568-34.784h49.056l-0.272-86.087c-0.032-7.281 5.36-13.258 12-13.258h162.512v-137.267c0-7.299 5.376-13.222 12-13.222h25.792v-16.34c0-19.185 14.176-34.785 31.584-34.785h136.174c17.408 0 31.57 15.601 31.57 34.785v59.111c0 19.181-14.162 34.784-31.57 34.784h-136.174c-17.408 0-31.584-15.603-31.584-34.784v-16.343h-13.792v124.044h13.792v-16.343c0-19.182 14.176-34.784 31.584-34.784h136.174c17.408 0 31.57 15.602 31.57 34.784v59.131c0 19.181-14.162 34.784-31.57 34.784h-136.174c-17.408 0-31.584-15.603-31.584-34.784v-16.343h-13.792v124.026h13.792v-16.343c0-19.146 14.176-34.766 31.584-34.766zM114.8 742.778v88.59c0 4.601 3.392 8.339 7.568 8.339h136.176c4.176 0 7.584-3.738 7.584-8.339v-88.59c0-4.601-3.408-8.339-7.584-8.339-50.352 0-83.472 0-136.176 0-4.176 0-7.568 3.755-7.568 8.339zM407.456 500.948c0 4.601 3.408 8.339 7.584 8.339h136.174c4.178 0 7.567-3.738 7.567-8.339v-59.113c0-4.603-3.389-8.34-7.567-8.34h-136.174c-4.176 0-7.584 3.738-7.584 8.34v59.113zM407.456 651.438c0 4.601 3.408 8.339 7.584 8.339h136.174c4.178 0 7.567-3.738 7.567-8.339v-59.131c0-4.601-3.389-8.339-7.567-8.339h-136.174c-4.176 0-7.584 3.738-7.584 8.339v59.131zM407.456 801.909c0 4.601 3.408 8.339 7.584 8.339h136.174c4.178 0 7.567-3.738 7.567-8.339v-59.131c0-4.601-3.389-8.339-7.567-8.339h-136.174c-4.176 0-7.584 3.738-7.584 8.339v59.131zM484.416 219.689h-381.616c-6.624 0-12-5.924-12-13.225 0-7.296 5.376-13.22 12-13.22h381.632c6.624 0 12 5.924 12 13.22-0.016 7.301-5.376 13.225-12.016 13.225zM484.416 279.613h-381.616c-6.624 0-12-5.924-12-13.225s5.376-13.22 12-13.22h381.632c6.624 0 12 5.919 12 13.22-0.016 7.301-5.376 13.225-12.016 13.225zM484.416 339.528h-381.616c-6.624 0-12-5.924-12-13.225 0-7.296 5.376-13.22 12-13.22h381.632c6.624 0 12 5.924 12 13.22-0.016 7.301-5.376 13.225-12.016 13.225zM726.124 759.118h67.953c6.625 0 12.001 5.923 12.001 13.222v80.604c0 7.299-5.376 13.222-12.001 13.222h-67.953c-6.62 0-11.996-5.924-11.996-13.222v-80.604c0-7.299 5.376-13.222 11.996-13.222zM738.125 839.721h43.95v-54.159h-43.95v54.159zM848.911 759.118h67.953c6.625 0 12.001 5.923 12.001 13.222v80.604c0 7.299-5.376 13.222-12.001 13.222h-67.953c-6.625 0-12.001-5.924-12.001-13.222v-80.604c0-7.299 5.376-13.222 12.001-13.222zM860.913 839.721h43.95v-54.159h-43.95v54.159zM726.124 618.034h67.953c6.625 0 12.001 5.924 12.001 13.222v80.604c0 7.299-5.376 13.223-12.001 13.223h-67.953c-6.62 0-11.996-5.924-11.996-13.223v-80.604c0-7.299 5.376-13.222 11.996-13.222zM738.125 698.638h43.95v-54.159h-43.95v54.159zM848.911 618.034h67.953c6.625 0 12.001 5.924 12.001 13.222v80.604c0 7.299-5.376 13.223-12.001 13.223h-67.953c-6.625 0-12.001-5.924-12.001-13.223v-80.604c0-7.299 5.376-13.222 12.001-13.222zM860.913 698.638h43.95v-54.159h-43.95v54.159zM917.197 99.661c-0.159 0.108-0.348 0.072-0.512 0.174-1.792 1.183-3.773 2.048-6.016 2.048h-831.598c-39.76 0-75.296-35.983-75.296-82.934 0-42.168 31.808-82.949 75.296-82.949h831.598c1.859 0 5.12 1.219 6.528 2.222l97.521 69.622c3.41 2.432 5.473 6.61 5.473 11.090 0 4.475-2.063 8.658-5.473 11.090l-97.521 69.637zM898.673-37.535h-761.937v112.988h761.937v-112.988zM79.135 75.382h33.6v-112.829h-33.6c-29.248 0-51.328 27.116-51.328 56.417 0 31.171 23.472 56.412 51.328 56.412zM922.67-26.342v90.604l63.457-45.292-63.457-45.312z" />
<glyph unicode="&#xe918;" glyph-name="minus" d="M938.667 368.764h-853.333v121.903h853.333v-121.903z" />
<glyph unicode="&#xe919;" glyph-name="plus" d="M955.729 369.98h-365.713v-365.713h-121.907v365.713h-365.713v121.907h365.713v365.713h121.907v-365.713h365.713v-121.907z" />
<glyph unicode="&#xe91a;" glyph-name="icon-5" d="M180.964 185.237h-121.747v-97.033h121.747v97.033zM349.361 466.759l-147.857-0.711v-45.955l147.857 0.712v45.954zM201.504 473.872l147.857 0.711v81.32l-147.857-48.207v-33.825zM164.413 148.731c1.312 0 2.376-1.057 2.376-2.355 0-1.303-1.064-2.355-2.376-2.355h-61.504c-1.312 0-2.376 1.052-2.376 2.355 0 1.299 1.064 2.355 2.376 2.355h61.504zM135.208 134.81c1.312 0 2.376-1.057 2.376-2.36 0-1.299-1.064-2.355-2.376-2.355h-61.504c-1.312 0-2.376 1.057-2.376 2.355 0 1.303 1.064 2.36 2.376 2.36h61.504zM782.643 132.561c1.308 0 2.374-1.057 2.374-2.355 0-1.303-1.066-2.355-2.374-2.355h-61.505c-1.313 0-2.378 1.052-2.378 2.355 0 1.299 1.066 2.355 2.378 2.355h61.505zM753.436 118.64c1.313 0 2.378-1.057 2.378-2.36 0-1.299-1.066-2.355-2.378-2.355h-61.505c-1.308 0-2.374 1.057-2.374 2.355 0 1.303 1.066 2.36 2.374 2.36h61.505zM445.338 161.308c1.312 0 2.376-1.052 2.376-2.355s-1.064-2.355-2.376-2.355h-61.504c-1.312 0-2.376 1.052-2.376 2.355s1.064 2.355 2.376 2.355h61.504zM416.133 147.386c1.312 0 2.376-1.057 2.376-2.36 0-1.299-1.064-2.355-2.376-2.355h-61.503c-1.312 0-2.376 1.057-2.376 2.355 0 1.303 1.064 2.36 2.376 2.36h61.503zM403.713 221.724c0-1.299-1.064-2.355-2.376-2.355s-2.376 1.057-2.376 2.355v71.419c0 1.303 1.064 2.36 2.376 2.36s2.376-1.057 2.376-2.36v-71.419zM391.722 255.637c0-1.299-1.064-2.355-2.376-2.355s-2.376 1.057-2.376 2.355v71.419c0 1.303 1.064 2.36 2.376 2.36s2.376-1.057 2.376-2.36v-71.419zM465.603 417.568c0-1.301-1.064-2.356-2.376-2.356s-2.376 1.055-2.376 2.356v71.419c0 1.301 1.064 2.356 2.376 2.356s2.376-1.055 2.376-2.356v-71.419zM453.613 451.481c0-1.301-1.064-2.356-2.376-2.356s-2.376 1.055-2.376 2.356v71.419c0 1.301 1.064 2.356 2.376 2.356s2.376-1.055 2.376-2.356v-71.419zM394.818 683.594c0-1.301-1.064-2.356-2.376-2.356s-2.376 1.055-2.376 2.356v71.419c0 1.301 1.064 2.356 2.376 2.356s2.376-1.055 2.376-2.356v-71.419zM382.827 717.507c0-1.301-1.064-2.356-2.376-2.356s-2.376 1.055-2.376 2.356v71.419c0 1.301 1.064 2.356 2.376 2.356s2.376-1.055 2.376-2.356v-71.419zM971.12 502.345c3.5 0 6.335-2.813 6.335-6.283s-2.835-6.284-6.335-6.284h-316.416c-3.5 0-6.335 2.813-6.335 6.284s2.835 6.283 6.335 6.283h316.416zM349.361 197.804v160.815h-224.060v-160.815h61.999c3.499 0 6.336-2.816 6.336-6.284v-109.601c0-3.472-2.836-6.284-6.336-6.284h-134.418c-3.499 0-6.336 2.811-6.336 6.284v109.601c0 3.468 2.836 6.284 6.336 6.284h59.748v167.098c0 3.468 2.837 6.284 6.336 6.284h69.868v141.047c0 2.928 2.020 5.389 4.752 6.086l401.918 131.039c3.319 1.071 6.889-0.731 7.969-4.025 0.209-0.644 0.312-1.297 0.312-1.939h0.009v-189.564c0.079 0.003 0.158 0.005 0.242 0.005h297.844c3.5 0 6.335-2.813 6.335-6.283v-365.631c0-3.472-2.835-6.284-6.335-6.284-3.496 0-6.335 2.811-6.335 6.284v359.347h-291.51c-0.084 0-0.163 0.002-0.242 0.005v-243.468h228.85c3.496 0 6.335-2.816 6.335-6.284v-109.601c0-3.472-2.839-6.284-6.335-6.284h-516.401c-3.499 0-6.336 2.811-6.336 6.284v109.601c0 3.468 2.837 6.284 6.336 6.284h33.12zM349.361 371.186v41.795l-147.857-0.712v-41.083h147.857zM133.686 529.605c-3.321-1.071-6.889 0.732-7.969 4.026s0.737 6.832 4.059 7.903l219.615 71.602c-0.020 0.201-0.030 0.404-0.030 0.61v200.333c0 3.47 2.836 6.284 6.336 6.284h154.725c3.5 0 6.335-2.813 6.335-6.284v-146.376l142.182 46.356c3.319 1.071 6.889-0.732 7.969-4.026s-0.735-6.832-4.059-7.903l-529.164-172.526zM362.032 617.258l142.437 46.439c-0.247 0.672-0.382 1.397-0.382 2.154v141.945h-142.055v-190.539zM362.032 560.035v-362.231h142.055v408.545l-142.055-46.315zM516.757 610.481v-412.677h74.366v436.921l-74.366-24.245zM826.303 185.237h-503.726v-97.033h503.726v97.033z" />
<glyph unicode="&#xe91b;" glyph-name="icon-6" d="M510.46 874.4l63.625-16.716c2.773-1.079 4.173-2.88 4.173-5.393v-16.177l22.933-5.932c2.795-1.079 4.173-2.88 4.173-5.393v-206.526l2.607 0.539v15.638c0 2.88 1.387 4.67 4.173 5.393l88.653 12.942h1.041l86.046-29.658c2.419-0.723 3.652-2.34 3.652-4.853v-23.726l49.007-10.246c2.795-0.722 4.173-2.513 4.173-5.392v-395.258l36.506 10.244h2.095l93.333-12.941c2.423-0.367 3.998-1.984 4.685-4.851 0-2.513-1.199-4.314-3.652-5.393l-464.124-149.367h-3.115l-464.125 149.367c-2.43 1.079-3.651 2.867-3.651 5.393 0 2.522 1.565 4.13 4.704 4.851l92.825 12.941h1.554l29.213-7.548v467.515c0 2.88 1.388 4.681 4.172 5.392l49.009 10.246v23.727c0 2.513 1.22 3.947 3.651 4.314l84.502 30.197 3.119 0.539 88.142-14.020c3.119-0.712 4.683-2.513 4.683-5.393v-15.098l9.898-1.078v132.112c0 2.157 1.22 3.958 3.671 5.393l23.977 6.471v15.637c0 2.513 1.22 4.131 3.652 4.853l57.894 17.255c1.024 0.356 2.065 0.356 3.127 0zM567.825 838.81v9.167l-53.713 14.559v-10.246l53.713-13.481zM513.071 841.507v-347.266h24.508v111.082c0 2.88 1.566 4.681 4.685 5.392l53.188 6.471v203.291l-23.467 5.932h-0.508l-58.406 15.098zM478.639 680.804v-186.575h24.512v347.266l-50.586-14.56h-0.529l-23.471-6.471v-128.876l45.393-5.393c3.106-0.712 4.681-2.513 4.681-5.392zM652.297 624.185h1.562l42.765-9.167v26.423l-78.225-11.863v-9.706l33.899 4.314zM547.998 600.998v-106.768h62.046c3.486 0 5.214-1.801 5.214-5.393v-18.871h15.134c3.465 0 5.218-1.801 5.218-5.393v-334.323l11.972 3.234v479.378l-99.584-11.863zM707.051 640.362v-27.501l74.573-16.177v17.795l-74.573 25.883zM504.183 862.526l-47.979-14.559v-8.628l47.979 13.481v9.706zM604.83 483.456h-185.629v-13.483h185.629v13.483zM517.218 459.721v-359.13l107.972 27.499v331.631h-107.972zM510.46 88.196l-117.865 30.737h-0.532l-251.868 64.17-68.326-9.169 440.134-141.828 440.657 141.82-69.338 9.165-369.745-94.903-3.119 0.009zM834.283 574.586l-176.26 37.746v-476.145l176.26 44.757v393.641zM506.79 459.721h-107.948v-331.631l107.948-27.499v359.13zM234.574 671.648l74.572 16.177v27.501l-74.572-25.883v-17.795zM363.913 698.61l33.897-3.775v9.167l-78.755 12.402v-26.422l43.284 8.628h1.575zM368.085 687.825v-551.637l20.327-5.389v333.786c0 3.588 1.752 5.389 5.215 5.389h15.645v18.876c0 3.59 1.565 5.391 4.704 5.391h54.223v181.722l-100.113 11.863zM180.861 649.529v-465.896l177.306-44.757v548.399l-177.306-37.746z" />
<glyph unicode="&#xe91c;" glyph-name="icon-7" d="M76.8 338.094l113.53 27.878v-48.251l-113.53-21.448v41.82zM76.8 379.914l113.53 34.309v48.252l-113.53-41.816v-40.745zM223.721-14.674l184.765-47.181v107.223l-184.765 23.593v-83.635zM76.8 213.714l113.53 6.431v48.251l-113.53-12.867v-41.815zM76.8 628.675l113.53 77.202v48.251l-113.53-83.636v-41.818zM76.8 712.31l113.53 91.142v75.058l-113.53-105.081v-61.118zM76.8 462.475l113.53 48.251v48.251l-113.53-55.757v-40.745zM76.8 546.111l113.53 63.263v48.251l-113.53-69.697v-41.818zM76.8 130.079l113.53-7.506v48.251l-113.53 1.070v-41.815zM632.207 697.298l-192.555 95.43v-62.191l192.555-85.78v52.54zM223.721 889.231v-60.046l45.635 36.456-45.635 23.589zM632.207 836.691l-191.442 123.309v-104.008l191.442-104.009v84.708zM632.207 487.137l-192.555 56.829v-62.19l192.555-47.18v52.541zM632.207 591.145l-192.555 77.202v-62.191l192.555-65.407v50.396zM633.324 169.748h-192.559v-62.188l192.559 11.796v50.391zM632.207 380.984l-192.555 37.53v-62.193l192.555-27.878v52.541zM632.207 275.901l-192.555 18.232v-63.263l192.555-8.581v53.612zM76.8 20.71l113.53-27.884v80.42l-113.53 15.012v-67.548zM223.721 626.53l184.765 101.864v62.191l-184.765-113.659v-50.396zM223.721 525.738l184.765 79.347v62.191l-184.765-90.069v-51.468zM223.721 728.394l184.765 125.453v101.864l-184.765-146.898v-80.419zM440.765 44.298v-108.298l192.559 38.6v88.996l-192.559-19.297zM223.721 221.22l184.765 10.721v62.193l-184.765-21.448v-51.466zM223.721 120.428l184.765-12.867v62.188l-184.765 1.075v-50.396zM223.721 423.875l184.765 55.757v63.263l-184.765-67.552v-51.468zM223.721 323.082l184.765 33.239v62.193l-184.765-45.036v-50.396zM793.6 483.92l153.6-52.54v36.456l-153.6 61.118v-45.034zM793.6 394.926l153.6-37.53v36.454l-153.6 45.036v-43.96zM793.6 573.989l153.6-68.624v36.456l-153.6 76.13v-43.962zM793.6 733.755v-71.841l153.6-82.563v53.613l-153.6 100.791zM793.6 305.925l153.6-22.518v36.46l-153.6 30.024v-43.965zM793.6 8.914l153.6 32.169v56.827l-153.6-16.082v-72.914zM664.489 20.71l96.835-13.942v729.131l-96.835-52.54v-662.649zM793.6 215.859l153.6-7.506v36.454l-153.6 13.942v-42.89zM793.6 125.788l153.6 9.651v37.53l-153.6-1.075v-46.106z" />
<glyph unicode="&#xe91d;" glyph-name="icon-8" d="M774.84 544.542v-112.542c66.586 0 128.957-24.509 177.101-72.105 46.735-49.029 70.81-112.543 70.81-175.892 0-135.624-106.291-245.135-239.314-248.003h-770.619c-7.034 0-12.818 5.729-12.818 13.051v997.896c0 7.163 5.627 13.053 12.818 13.053h617.588c2.816 0 11.254-2.865 14.223-5.73l125.988-128.298c2.816-2.865 4.224-7.163 4.224-10.029v-121.135l92.068 90.891c4.219 4.298 12.815 4.298 17.034-1.433l56.586-59.056c4.219-4.298 4.219-13.053-1.408-17.351l-164.28-163.318zM92.068 732.056c-15.631 0-15.631 24.514 0 24.514h107.699c17.038 0 17.038-24.514 0-24.514h-107.699zM92.068 674.433c-15.631 0-15.631 25.946 0 25.946h107.699c17.038 0 17.038-25.946 0-25.946h-107.699zM573.665 674.433c-15.631 0-15.631 25.946 0 25.946h107.699c17.039 0 17.039-25.946 0-25.946h-107.699zM573.665 732.056c-15.631 0-15.631 24.514 0 24.514h107.699c17.039 0 17.039-24.514 0-24.514h-107.699zM150.216 156.621c39.704 0 70.81-31.677 70.81-72.105 0-38.999-31.106-72.11-70.81-72.11-38.296 0-70.809 33.111-70.809 72.11 0 40.269 32.513 72.105 70.809 72.105zM150.216 130.678c-25.479 0-45.33-20.219-45.33-46.162 0-25.948 21.259-46.162 45.33-46.162 25.479 0 45.33 20.214 45.33 46.162 0 25.943-19.851 46.162-45.33 46.162zM150.216 339.676c39.704 0 70.81-31.672 70.81-72.105 0-38.999-31.106-72.11-70.81-72.11-38.296 0-70.809 33.111-70.809 72.11 0 40.433 32.513 72.105 70.809 72.105zM150.216 313.733c-25.479 0-45.33-20.219-45.33-46.162 0-24.515 21.259-46.162 45.33-46.162 25.479 0 45.33 21.647 45.33 46.162 0 25.943-19.851 46.162-45.33 46.162zM150.216 522.894c39.704 0 70.81-31.676 70.81-72.108 0-39-31.106-70.677-70.81-70.677-38.296 0-70.809 31.677-70.809 70.677 0 40.432 32.513 72.108 70.809 72.108zM150.216 498.38c-25.479 0-45.33-21.648-45.33-47.594 0-24.515 21.259-46.162 45.33-46.162 25.479 0 45.33 21.647 45.33 46.162 0 25.946-19.851 47.594-45.33 47.594zM271.983 407.491c-15.631 0-15.631 25.943 0 25.943h225.245c17.040 0 17.040-25.943 0-25.943h-225.245zM271.983 41.216c-15.631 0-15.631 25.948 0 25.948h225.245c17.040 0 17.040-25.948 0-25.948h-225.245zM271.983 103.137c-15.631 0-15.631 24.515 0 24.515h225.245c17.040 0 17.040-24.515 0-24.515h-225.245zM271.983 224.435c-15.631 0-15.631 25.943 0 25.943h225.245c17.040 0 17.040-25.943 0-25.943h-225.245zM271.983 286.351c-15.631 0-15.631 24.515 0 24.515h225.245c17.040 0 17.040-24.515 0-24.515h-225.245zM271.983 469.569c-15.631 0-15.631 25.946 0 25.946h225.245c17.040 0 17.040-25.946 0-25.946h-225.245zM903.639 279.188c-12.815-10.025-28.293 7.163-15.631 18.785l5.627 4.296c-26.885 27.382-62.367 44.733-101.914 47.596v-8.596c0-15.918-24.074-15.918-24.074 0v8.596c-39.7-2.862-75.028-20.214-101.914-47.596l5.627-4.296c12.815-11.459-2.816-28.81-15.631-18.785l-5.627 5.734c-18.447-24.515-31.104-56.192-32.512-89.462h7.035c17.034 0 17.034-23.081 0-23.081h-7.035c1.408-33.106 14.223-64.942 32.512-89.457l5.627 5.729c12.815 10.030 28.293-7.163 15.631-18.785l-5.627-4.296c26.885-27.377 62.367-44.728 101.914-47.596v8.596c0 15.918 24.074 15.918 24.074 0v-8.438c39.7 2.867 75.028 20.219 101.914 47.596l-5.627 4.301c-12.815 11.459 2.816 28.81 15.631 18.78l5.627-5.729c18.447 24.515 31.109 56.192 32.512 89.457h-7.030c-15.631 0-15.631 23.081 0 23.081h7.030c-1.403 33.111-14.223 64.947-32.512 89.462l-5.627-5.893zM606.336 111.892c-25.482 66.381-14.228 144.215 33.92 198.973 42.516 47.596 103.322 70.676 165.688 62.080 100.511-14.484 158.659-99.487 160.061-186.081 1.408-105.216-80.655-191.811-182.728-193.244-77.844-1.428-147.246 46.162-176.942 118.272zM814.541 195.461h76.436c15.631 0 15.631-23.081 0-23.081h-76.436c-5.627-15.918-19.85-25.943-35.482-24.515-19.85 0-36.89 17.352-35.482 37.571 1.408 15.918 9.846 28.81 24.069 33.106v63.514c0 15.918 24.074 15.918 24.074 0v-63.514c10.004-4.296 18.442-11.459 22.82-23.081zM772.024 192.599c-5.627-4.301-5.627-11.464-1.408-15.918 1.408-2.867 5.627-4.301 8.443-4.301 4.219-1.434 7.035 0 9.846 2.867 4.224 4.296 4.224 11.459 0 15.918-1.403 2.862-5.627 4.296-8.438 5.729-2.816 0-7.035-1.434-8.443-4.296zM749.358 430.572v90.89l-42.516-41.864c-1.408-1.433-2.811-2.865-5.627-2.865l-79.247-20.216c-7.035-2.865-18.447 1.433-14.228 15.918l22.666 79.271c1.408 1.433 1.408 4.298 4.224 5.731l114.729 112.54v137.053h-116.137c-7.035 0-12.82 4.298-12.82 11.461v116.997h-594.765v-973.538h647.286c-24.069 11.459-46.735 27.377-65.183 46.162-94.879 96.62-94.879 255.319 0 351.944 36.736 37.407 86.287 63.355 141.619 70.518zM780.467-39.644c120.361 0 219.459 100.92 218.056 225.080 0 56.187-21.258 113.971-63.775 157.266-39.706 40.433-94.884 64.947-154.44 64.947-60.959 0-116.137-24.515-155.843-64.947-85.033-88.023-85.033-229.376 0-317.245 41.267-40.586 98.007-65.101 156.001-65.101zM362.644 877.704h43.923c11.255 0 19.852-10.028 19.852-20.216v-18.783c15.631-4.298 29.699-13.053 42.517-23.081l15.631 10.029c11.255 5.73 21.259 2.865 28.293-7.163l21.258-38.999c4.219-7.163 5.627-20.216-7.035-27.379l-15.631-10.029c4.218-15.918 4.218-31.676 1.407-47.594l17.039-10.029c15.631-7.163 11.254-20.216 7.030-28.811l-21.258-36.133c-7.032-13.053-18.442-14.486-29.697-7.163l-12.817 7.163c-12.818-11.461-26.886-20.216-41.11-25.947v-18.783c0-11.461-9.848-20.215-21.259-20.215h-42.517c-11.254 0-19.851 8.595-19.851 20.215v17.351c-15.631 5.73-29.7 13.053-42.517 23.081l-17.038-8.595c-8.441-7.163-19.852-5.73-26.886 7.163l-21.259 37.566c-5.627 10.028-8.441 20.216 7.034 28.811l14.224 8.596c-2.814 15.918-2.814 31.676 0 49.027l-17.038 8.595c-12.817 10.029-12.817 20.216-7.034 28.812l21.258 37.566c5.627 10.029 18.445 14.486 28.293 8.596l14.224-8.596c1.407 1.433 19.852 14.486 19.852 14.486 5.627 4.298 14.224 7.163 21.258 10.028v20.216c0 10.188 8.597 20.216 19.852 20.216zM402.347 851.758h-34.076v-17.351c0-5.73-2.813-11.461-7.034-15.918-5.627-4.298-18.445-8.596-25.479-11.461-7.034-4.298-12.818-10.028-18.445-15.918-8.441-8.595-18.445-7.163-25.479-2.865l-12.817 8.596-18.445-30.244 15.631-8.595c8.441-4.298 11.254-13.053 9.847-21.648-1.406-14.486-1.406-27.379 0-40.432 2.814-14.486 2.814-21.648-11.254-28.811l-11.254-7.163 17.038-30.244 15.631 10.028c5.627 2.865 12.817 7.163 24.072-2.865s24.072-17.351 38.297-21.648c8.441-1.433 14.224-10.028 14.224-18.783v-17.35h33.92v18.783c0 8.596 5.627 15.918 14.224 18.783 12.817 5.731 25.479 13.053 35.483 21.648 9.848 8.596 17.038 10.029 28.293 2.865l11.254-5.73 17.036 28.812-15.629 10.028c-11.255 7.163-9.848 14.486-9.848 21.648 2.813 14.486 2.813 27.379 0 41.864-1.407 10.028-1.407 18.783 9.848 25.946l12.817 7.163-17.038 30.244-15.631-8.596c-7.034-4.298-17.038-4.298-22.665 1.433-11.254 10.029-24.072 17.351-38.297 21.648-8.441 2.866-14.224 11.461-14.224 20.216v15.918zM386.716 785.38c38.296 0 69.402-31.676 69.402-69.243 0-38.999-31.106-70.675-69.402-70.675-36.89 0-67.996 31.676-67.996 70.675 0 37.566 31.263 69.243 67.996 69.243zM386.716 759.434c-24.072 0-42.517-18.783-42.517-43.297s18.445-44.729 42.517-44.729c24.072 0 43.923 20.216 43.923 44.729s-19.852 43.297-43.923 43.297zM964.603 863.378l55.178-59.215c5.627-5.73 5.627-13.053 0-18.783l-36.89-36.134 25.477-27.379c4.219-4.298 4.219-13.052 0-17.351l-131.773-128.298c-4.219-5.73-12.815-4.298-17.034 0-5.627 5.731-5.627 13.053 0 18.783l121.764 118.27c-26.885 28.811-53.77 57.623-82.217 86.594-4.224 5.73-4.224 13.052 1.408 18.783l45.327 44.729c5.939 5.73 13.133 5.73 18.76 0zM994.299 795.568l-39.7 40.432-28.293-27.379 38.298-40.432 29.696 27.379zM674.176 495.515l-25.482 28.811-11.254-38.999 36.736 10.188zM913.644 716.137l-39.706 41.864-213.832-210.594 38.298-40.432 215.24 209.162zM645.883 916.703v-85.161h83.625l-83.625 85.161z" />
<glyph unicode="&#xe91e;" glyph-name="icon-9" d="M919.010 158.498l-223.215 223.219-95.795-95.795 223.219-223.215c26.658-26.662 69.585-26.662 95.791 0 26.21 26.658 26.21 69.585 0 95.791zM768.090 519.531c87.211 0 158.153 70.942 158.153 158.15 0 26.208-7.232 50.608-18.526 72.297l-122.001-122.001-67.328 67.326 122.001 122.001c-21.687 11.296-46.089 18.526-72.299 18.526-87.206 0-158.148-70.941-158.148-158.149 0-18.526 3.614-36.148 9.489-52.416l-83.593-83.593-80.431 80.43c4.19 4.18 7.514 9.146 9.779 14.612 2.27 5.466 3.435 11.326 3.435 17.244s-1.165 11.778-3.435 17.244c-2.266 5.466-5.589 10.432-9.779 14.612l-32.081 32.082 95.795 95.793c-25.421 25.385-59.874 39.644-95.795 39.644-35.923 0-70.377-14.259-95.793-39.644l-127.423-127.875c-4.189-4.18-7.512-9.146-9.78-14.612s-3.435-11.326-3.435-17.244c0-5.918 1.167-11.778 3.435-17.244s5.591-10.432 9.78-14.612l32.081-32.081h-114.771c-8.585 0-16.719-3.163-22.592-9.489-3.006-2.945-5.394-6.46-7.024-10.34s-2.47-8.045-2.47-12.253c0-4.208 0.84-8.374 2.47-12.253s4.018-7.395 7.024-10.34l114.771-114.772c2.945-3.004 6.46-5.393 10.339-7.023s8.045-2.47 12.253-2.47c4.208 0 8.374 0.841 12.253 2.47s7.395 4.019 10.339 7.023c5.874 5.875 9.489 14.007 9.489 22.596v114.769l31.63-31.629c17.623-17.621 46.089-17.621 63.712 0l80.428-80.431-286.927-286.929c-6.339-6.263-11.372-13.722-14.807-21.943s-5.204-17.041-5.204-25.954c0-8.909 1.769-17.732 5.204-25.954s8.468-15.68 14.807-21.939c26.659-26.662 69.586-26.662 95.793 0l466.316 465.86c16.717-5.875 34.338-9.489 52.864-9.489z" />
<glyph unicode="&#xe91f;" glyph-name="arrow-right-top" d="M1024 207.853v752.147h-752.531v-92.856h595.987l-867.456-865.992 64.653-65.152 866.432 867.564v-595.679l92.915-0.032z" />
<glyph unicode="&#xe920;" glyph-name="arrow-left-top" d="M752.147 960h-752.147v-752.531h92.856v595.985l865.992-867.454 65.152 64.653-867.564 866.435h595.679l0.032 92.912z" />
<glyph unicode="&#xe921;" glyph-name="location" d="M496.282 467.2c-26.803 0-52.506 10.116-71.456 28.117-18.951 18.005-29.597 42.422-29.597 67.883s10.647 49.879 29.597 67.882c18.95 18.004 44.653 28.118 71.456 28.118 26.799 0 52.501-10.114 71.454-28.118s29.598-42.421 29.598-67.882c0-12.607-2.615-25.091-7.693-36.736-5.077-11.648-12.523-22.234-21.905-31.147s-20.523-15.987-32.785-20.809c-12.258-4.826-25.399-7.309-38.669-7.309zM496.282 832c-75.043 0-147.012-28.32-200.075-78.73s-82.873-118.78-82.873-190.070c0-201.6 282.948-499.2 282.948-499.2s282.948 297.6 282.948 499.2c0 71.29-29.811 139.66-82.876 190.070-53.060 50.41-125.030 78.73-200.073 78.73z" />
<glyph unicode="&#xe922;" glyph-name="phone" d="M282.453 499.627c61.44-120.747 160.427-219.307 281.173-281.173l93.867 93.867c11.52 11.52 28.587 15.36 43.52 10.24 47.787-15.787 99.413-24.32 152.32-24.32 23.467 0 42.667-19.2 42.667-42.667v-148.907c0-23.467-19.2-42.667-42.667-42.667-400.64 0-725.333 324.693-725.333 725.333 0 23.467 19.2 42.667 42.667 42.667h149.333c23.467 0 42.667-19.2 42.667-42.667 0-53.333 8.533-104.533 24.32-152.32 4.693-14.933 1.28-31.573-10.667-43.52l-93.867-93.867z" />
<glyph unicode="&#xe923;" glyph-name="mail" d="M938.667 610.223v-376.679c0-65.122-52.77-117.897-117.897-117.897h-617.542c-31.268 0-61.255 12.42-83.364 34.53s-34.531 52.096-34.531 83.366v376.679l413.15-227.256c8.418-4.625 18.637-4.625 27.034 0l413.15 227.256zM820.77 789.333c30.775-0.003 60.331-12.040 82.351-33.54s34.761-50.758 35.499-81.525l-426.62-234.665-426.622 234.687 0.045 2.021c1.257 30.4 14.219 59.136 36.175 80.201s51.204 32.824 81.63 32.821h617.542z" />
<glyph unicode="&#xe924;" glyph-name="Chevron" d="M340.039 126.707c-11.361 11.358-12.393 29.137-3.098 41.664l3.098 3.588 276.025 276.041-276.025 276.039c-11.361 11.361-12.393 29.138-3.098 41.666l3.098 3.589c11.361 11.361 29.138 12.393 41.666 3.098l3.589-3.098 298.665-298.668c11.362-11.358 12.395-29.137 3.098-41.664l-3.098-3.588-298.665-298.667c-12.497-12.497-32.758-12.497-45.255 0z" />
<glyph unicode="&#xe925;" glyph-name="icon-10" d="M154.047 947.198c-93.306 0.103-154.186-69.674-154.047-156.43l0.409-254.866c0.024-15.338 12.824-27.688 28.757-27.688h381.921c15.933 0 28.757 12.35 28.757 27.688v383.338c0 15.338-12.824 27.649-28.757 27.667l-257.040 0.292zM865.234 947.198l-257.019-0.295c-15.933-0.018-28.759-12.329-28.759-27.666v-383.338c0-15.338 12.826-27.688 28.759-27.688h381.921c15.933 0 28.733 12.35 28.754 27.688l0.389 254.866c0.133 86.761-60.739 156.537-154.045 156.433zM802.703 390.574c-29.056-0.005-57.825-5.724-84.669-16.829s-51.236-27.377-71.777-47.892c-20.541-20.516-36.838-44.867-47.949-71.67-11.116-26.798-16.835-55.521-16.829-84.531 0.005-58.578 23.327-114.755 64.819-156.17 41.498-41.421 97.772-64.686 156.452-64.681s114.954 23.276 156.447 64.696c41.487 41.421 64.799 97.597 64.804 156.18v0.067c-0.015 58.578-23.337 114.749-64.84 156.165-41.498 41.411-97.777 64.676-156.457 64.666zM29.17 390.349c-15.933 0-28.733-12.355-28.757-27.689l-0.409-254.843c-0.137-86.764 60.738-156.559 154.047-156.457l257.042 0.297c15.933 0.015 28.757 12.349 28.757 27.689v383.314c0 15.34-12.824 27.689-28.757 27.689h-381.924z" />
<glyph unicode="&#xe926;" glyph-name="tags" d="M234.667 576c16.974 0 33.253 6.743 45.255 18.745s18.745 28.281 18.745 45.255c0 16.974-6.743 33.253-18.745 45.255s-28.281 18.745-45.255 18.745c-16.974 0-33.253-6.743-45.255-18.745s-18.745-28.281-18.745-45.255c0-16.974 6.743-33.253 18.745-45.255s28.281-18.745 45.255-18.745zM742.827 465.92c15.36-15.36 25.173-36.693 25.173-60.587 0-23.467-9.387-44.8-25.173-60.16l-213.333-213.333c-7.915-7.953-17.323-14.268-27.682-18.573-10.359-4.309-21.47-6.524-32.691-6.524s-22.332 2.214-32.691 6.524c-10.361 4.305-19.768 10.62-27.682 18.573l-298.24 298.24c-15.787 15.787-25.173 37.12-25.173 60.587v213.333c0 47.36 37.973 85.333 85.333 85.333h213.333c23.467 0 44.8-9.387 60.16-24.747l298.667-298.667zM577.707 716.373l42.667 42.667 293.12-293.12c15.787-15.36 25.173-37.12 25.173-60.587s-9.387-44.8-24.747-60.16l-229.547-229.547-42.667 42.667 243.627 247.040-307.627 311.040z" />
<glyph unicode="&#xe927;" glyph-name="pinterest" d="M385.707 40.96c40.96-12.373 82.347-19.627 126.293-19.627 113.161 0 221.683 44.954 301.7 124.966 80.013 80.017 124.966 188.54 124.966 301.7 0 56.030-11.038 111.513-32.478 163.279-21.444 51.765-52.868 98.801-92.489 138.42s-86.656 71.048-138.423 92.49c-51.763 21.442-107.247 32.478-163.277 32.478s-111.513-11.036-163.279-32.478c-51.765-21.442-98.801-52.87-138.42-92.49-80.015-80.016-124.968-188.54-124.968-301.699 0-181.333 113.92-337.067 274.773-398.507-3.84 33.28-7.68 88.32 0 126.293l49.067 210.773c0 0-12.373 24.747-12.373 64 0 58.88 36.693 102.827 78.507 102.827 36.693 0 53.76-26.88 53.76-61.44 0-36.693-24.32-89.173-36.693-139.52-7.253-41.813 22.187-78.507 64.853-78.507 75.947 0 134.827 81.067 134.827 195.413 0 102.4-73.387 172.373-178.773 172.373-120.32 0-191.147-89.6-191.147-183.893 0-36.693 11.947-73.813 31.573-98.133 3.84-2.56 3.84-5.973 2.56-12.373l-12.373-46.507c0-7.253-4.693-9.813-11.947-4.693-54.613 23.893-86.187 101.547-86.187 164.267 0 134.827 95.573 257.28 279.893 257.28 146.773 0 261.12-105.387 261.12-245.333 0-146.773-90.88-264.533-221.013-264.533-41.387 0-81.92 22.187-96.427 48.213l-28.587-101.12c-9.813-36.693-36.693-85.76-55.040-115.2v1.28z" />
<glyph unicode="&#xe928;" glyph-name="linkedin" d="M264.417 742.413c-0.012-23.748-9.457-46.519-26.258-63.303s-39.581-26.206-63.328-26.194c-23.748 0.012-46.519 9.457-63.303 26.258s-26.206 39.581-26.194 63.329c0.012 23.748 9.457 46.518 26.258 63.302s39.581 26.206 63.329 26.194c23.748-0.012 46.518-9.457 63.302-26.258s26.206-39.581 26.194-63.328zM267.103 586.61h-179.084v-560.532h179.084v560.532zM550.054 586.61h-178.187v-560.532h176.395v294.144c0 163.861 213.559 179.085 213.559 0v-294.144h176.845v355.034c0 276.237-316.083 265.94-390.404 130.283l1.792 75.216z" />
<glyph unicode="&#xe929;" glyph-name="insta" d="M512 874.667c115.925 0 130.389-0.427 175.872-2.56 45.44-2.133 76.373-9.259 103.595-19.84 28.16-10.837 51.883-25.515 75.605-49.195 21.696-21.329 38.485-47.129 49.195-75.605 10.539-27.179 17.707-58.155 19.84-103.595 2.005-45.483 2.56-59.947 2.56-175.872s-0.427-130.389-2.56-175.872c-2.133-45.44-9.301-76.373-19.84-103.595-10.679-28.493-27.473-54.298-49.195-75.605-21.333-21.687-47.134-38.477-75.605-49.195-27.179-10.539-58.155-17.707-103.595-19.84-45.483-2.005-59.947-2.56-175.872-2.56s-130.389 0.427-175.872 2.56c-45.44 2.133-76.373 9.301-103.595 19.84-28.487 10.688-54.292 27.482-75.605 49.195-21.7 21.325-38.488 47.125-49.195 75.605-10.581 27.179-17.707 58.155-19.84 103.595-2.005 45.483-2.56 59.947-2.56 175.872s0.427 130.389 2.56 175.872c2.133 45.483 9.259 76.373 19.84 103.595 10.677 28.494 27.469 54.301 49.195 75.605 21.319 21.708 47.122 38.497 75.605 49.195 27.221 10.581 58.112 17.707 103.595 19.84 45.483 2.005 59.947 2.56 175.872 2.56zM512 661.333c-56.58 0-110.842-22.476-150.849-62.484s-62.484-94.269-62.484-150.849c0-56.58 22.476-110.844 62.484-150.848 40.008-40.009 94.269-62.485 150.849-62.485s110.844 22.477 150.848 62.485c40.009 40.004 62.485 94.268 62.485 150.848s-22.477 110.842-62.485 150.849c-40.004 40.008-94.268 62.484-150.848 62.484zM789.333 672c0 14.145-5.619 27.71-15.62 37.712s-23.569 15.621-37.713 15.621c-14.144 0-27.712-5.619-37.713-15.621s-15.62-23.567-15.62-37.712c0-14.145 5.619-27.71 15.62-37.712s23.569-15.621 37.713-15.621c14.144 0 27.712 5.619 37.713 15.621s15.62 23.567 15.62 37.712zM512 576c33.946 0 66.505-13.486 90.509-37.49s37.491-56.56 37.491-90.51c0-33.946-13.487-66.505-37.491-90.509s-56.563-37.491-90.509-37.491c-33.95 0-66.505 13.487-90.51 37.491s-37.49 56.563-37.49 90.509c0 33.95 13.486 66.505 37.49 90.51s56.56 37.49 90.51 37.49z" />
<glyph unicode="&#xe92a;" glyph-name="facebook" d="M406.277 21.333h179.648v359.748h161.865l17.788 178.75h-179.652v90.274c0 11.912 4.732 23.335 13.154 31.758s19.849 13.154 31.761 13.154h134.737v179.649h-134.737c-59.558 0-116.676-23.659-158.793-65.772-42.112-42.114-65.77-99.232-65.77-158.789v-90.274h-89.825l-17.785-178.75h107.61v-359.748z" />
</font>
</defs>
</svg>
